<svg viewBox="0 0 325 366" xmlns="http://www.w3.org/2000/svg" fill-rule="evenodd" clip-rule="evenodd" stroke-linejoin="round" stroke-miterlimit="1.414"><g fill-rule="nonzero"><path d="M324.741 107.31c-.003-6.137-1.315-11.56-3.97-16.214-2.607-4.577-6.512-8.413-11.749-11.446-43.235-24.929-86.511-49.782-129.731-74.737-11.652-6.727-22.949-6.481-34.515.342C127.568 15.404 41.41 64.765 15.737 79.636 5.163 85.756.019 95.124.016 107.299 0 157.432.016 207.565 0 257.701c.002 6.002 1.259 11.32 3.796 15.904 2.609 4.715 6.568 8.657 11.927 11.759 25.675 14.87 111.843 64.228 129.048 74.379 11.571 6.827 22.868 7.071 34.524.342 43.221-24.956 86.5-49.808 129.741-74.736 5.358-3.101 9.317-7.045 11.926-11.757 2.534-4.584 3.793-9.902 3.795-15.906 0 0 0-100.241-.016-150.376z" fill="#9b4993"/><path d="M162.875 182.011L3.796 273.605c2.609 4.715 6.568 8.657 11.927 11.759 25.675 14.87 111.843 64.228 129.048 74.379 11.571 6.827 22.868 7.071 34.524.342 43.221-24.956 86.5-49.808 129.741-74.736 5.358-3.101 9.317-7.045 11.926-11.757l-158.087-91.581z" fill="#692876"/><path d="M115.758 209.142c9.257 16.16 26.659 27.06 46.621 27.06 20.085 0 37.586-11.038 46.795-27.371l-46.299-26.82-47.117 27.131z" fill="#692876"/><path d="M324.741 107.31c-.003-6.137-1.315-11.56-3.97-16.214l-157.896 90.915 158.087 91.581c2.534-4.584 3.793-9.902 3.795-15.906 0 0 0-100.241-.016-150.376z" fill="#822f85"/><path d="M209.174 208.831c-9.209 16.333-26.71 27.371-46.795 27.371-19.962 0-37.364-10.9-46.621-27.06a53.445 53.445 0 0 1-7.082-26.643c0-29.659 24.044-53.702 53.703-53.702 19.833 0 37.144 10.764 46.446 26.759l46.939-27.03c-18.657-32.205-53.489-53.873-93.385-53.873-59.564 0-107.848 48.285-107.848 107.846 0 19.54 5.198 37.864 14.284 53.67 18.61 32.376 53.542 54.177 93.564 54.177 40.095 0 75.082-21.888 93.665-54.36l-46.87-27.155zM257.82 157h10.667v51.666H257.82zM281.487 157h10.666v51.666h-10.666z" fill="#fff"/><path fill="#fff" d="M249.153 165.666h51.667v10.667h-51.667zM249.153 189.333h51.667V200h-51.667z"/></g></svg>