<svg xmlns="http://www.w3.org/2000/svg" width="711.201" height="383.598"><defs><clipPath id="a"><path d="M11.52 162C11.52 81.677 135.307 16.56 288 16.56S564.48 81.678 564.48 162 440.693 307.44 288 307.44 11.52 242.32 11.52 162"/></clipPath><radialGradient id="b" cx="0" cy="0" r="1" fx="0" fy="0" gradientTransform="matrix(363.06 0 0 -363.06 177.52 256.31)" gradientUnits="userSpaceOnUse" spreadMethod="pad"><stop offset="0" stop-color="#aeb2d5"/><stop offset=".3" stop-color="#aeb2d5"/><stop offset=".75" stop-color="#484c89"/><stop offset="1" stop-color="#484c89"/></radialGradient><clipPath id="c"><path d="M0 324h576V0H0v324z"/></clipPath><clipPath id="d"><path d="M0 324h576V0H0v324z"/></clipPath></defs><g clip-path="url(#a)" transform="matrix(1.25 0 0 -1.25 -4.4 394.3)"><path fill="url(#b)" d="M11.52 162C11.52 81.677 135.307 16.56 288 16.56S564.48 81.678 564.48 162 440.693 307.44 288 307.44 11.52 242.32 11.52 162"/></g><g clip-path="url(#c)" transform="matrix(1.25 0 0 -1.25 -4.4 394.3)"><path fill="#777bb3" d="M288 27.36c146.73 0 265.68 60.28 265.68 134.64 0 74.36-118.95 134.643-265.68 134.643-146.73 0-265.68-60.282-265.68-134.64C22.32 87.64 141.27 27.36 288 27.36"/></g><g clip-path="url(#d)" transform="matrix(1.25 0 0 -1.25 -4.4 394.3)"><path d="M161.73 145.31c12.065 0 21.072 2.225 26.77 6.61 5.64 4.342 9.533 11.863 11.574 22.354 1.903 9.806 1.178 16.653-2.154 20.348-3.407 3.774-10.773 5.688-21.893 5.688h-19.28l-10.69-55h15.673zM98.667 77.56a3 3 0 0 0-2.944 3.572l28.328 145.75a3.007 3.007 0 0 0 2.95 2.428h61.05c19.19 0 33.47-5.21 42.45-15.487 9.03-10.33 11.81-24.772 8.288-42.92-1.435-7.395-3.905-14.262-7.34-20.41-3.44-6.155-7.984-11.85-13.51-16.93-6.629-6.193-14.111-10.683-22.249-13.323-8-2.61-18.278-3.93-30.546-3.93h-24.722l-7.06-36.322a3 3 0 0 0-2.944-2.428h-31.75z"/><path fill="#fff" d="M159.22 197.31h16.808c13.42 0 18.083-2.945 19.667-4.7 2.628-2.914 3.124-9.058 1.435-17.767-1.898-9.75-5.416-16.663-10.458-20.545-5.162-3.974-13.554-5.988-24.94-5.988h-12.036l9.524 49zm28.83 35h-61.054a6.002 6.002 0 0 1-5.89-4.855L92.779 81.705a6 6 0 0 1 1.25-4.962 6.002 6.002 0 0 1 4.63-2.183h31.75c2.87 0 5.34 2.036 5.89 4.855l6.591 33.895h22.25c12.58 0 23.177 1.372 31.48 4.077 8.54 2.775 16.4 7.48 23.356 13.984 5.75 5.3 10.49 11.24 14.08 17.66s6.17 13.6 7.667 21.3c3.715 19.11.697 34.41-8.97 45.47-9.566 10.959-24.608 16.509-44.7 16.509m-45.633-90h19.31c12.802 0 22.337 2.41 28.602 7.234 6.266 4.824 10.492 12.876 12.688 24.156 2.1 10.833 1.144 18.477-2.87 22.93-4.02 4.453-12.06 6.68-24.123 6.68h-21.753l-11.856-61m45.632 84c18.368 0 31.767-4.82 40.19-14.46 8.42-9.642 10.956-23.1 7.596-40.376-1.383-7.117-3.722-13.624-7.015-19.52-3.29-5.898-7.6-11.292-12.92-16.184-6.34-5.93-13.38-10.16-21.13-12.673-7.751-2.53-17.621-3.787-29.621-3.787h-27.2l-7.532-38.75h-31.75l28.328 145.75h61.054"/><path d="M311.58 116.31c-.896 0-1.745.4-2.314 1.092-.57.69-.802 1.6-.63 2.48l12.53 64.49c1.192 6.132.898 10.534-.827 12.394-1.059 1.137-4.229 3.044-13.609 3.044h-22.7l-15.755-81.072a3.002 3.002 0 0 0-2.945-2.428h-31.5a2.998 2.998 0 0 0-2.945 3.572l28.328 145.75a3.001 3.001 0 0 0 2.945 2.428h31.5c.896 0 1.745-.4 2.315-1.09.57-.693.8-1.602.63-2.482l-6.836-35.178h24.423c18.604 0 31.22-3.28 38.568-10.028 7.49-6.884 9.827-17.89 6.947-32.72l-13.18-67.822a3 3 0 0 0-2.945-2.43h-32z"/><path fill="#fff" d="M293.66 271.06h-31.5a6 6 0 0 1-5.89-4.855l-28.328-145.75a5.999 5.999 0 0 1 5.89-7.145h31.5a6 6 0 0 1 5.89 4.855l15.283 78.645h20.23c9.362 0 11.327-2 11.406-2.086.57-.61 1.32-3.44.09-9.78l-12.53-64.49a6.001 6.001 0 0 1 5.89-7.144h32c2.87 0 5.34 2.036 5.89 4.855l13.169 67.825c3.094 15.92.448 27.864-7.86 35.5-7.928 7.28-21.208 10.82-40.6 10.82h-20.782l6.142 31.605a6 6 0 0 1-5.89 7.145m0-6l-7.53-38.75h28.06c17.658 0 29.837-3.082 36.54-9.238 6.703-6.16 8.71-16.14 6.032-29.938l-13.18-67.824h-32l12.53 64.488c1.427 7.336.903 12.34-1.573 15.008-2.48 2.668-7.75 4.004-15.81 4.004h-25.18l-16.23-83.5h-31.5l28.341 145.75h31.5"/><path d="M409.55 145.31c12.065 0 21.072 2.225 26.77 6.61 5.64 4.34 9.533 11.862 11.575 22.354 1.903 9.806 1.178 16.653-2.155 20.348-3.407 3.774-10.773 5.688-21.893 5.688h-19.28l-10.69-55h15.673zm-63.062-67.75c-.895 0-1.745.4-2.314 1.092-.57.69-.802 1.6-.63 2.48l28.327 145.75a3.007 3.007 0 0 0 2.95 2.428h61.05c19.19 0 33.47-5.21 42.45-15.487 9.03-10.33 11.81-24.77 8.29-42.92-1.434-7.395-3.903-14.262-7.34-20.41-3.44-6.155-7.982-11.85-13.51-16.93-6.631-6.193-14.113-10.683-22.251-13.323-8-2.61-18.278-3.93-30.546-3.93H388.24l-7.056-36.322a3.002 3.002 0 0 0-2.946-2.428h-31.75z"/><path fill="#fff" d="M407.04 197.31h16.808c13.42 0 18.083-2.945 19.667-4.7 2.63-2.914 3.125-9.058 1.435-17.766-1.898-9.75-5.417-16.664-10.458-20.546-5.162-3.974-13.554-5.988-24.94-5.988h-12.035l9.523 49zm28.83 35h-61.053a6.002 6.002 0 0 1-5.89-4.855L340.6 81.705a5.999 5.999 0 0 1 5.89-7.145h31.75c2.87 0 5.34 2.036 5.89 4.855l6.585 33.895h22.25c12.58 0 23.173 1.372 31.478 4.077 8.54 2.775 16.4 7.48 23.356 13.986 5.75 5.29 10.48 11.23 14.07 17.655 3.591 6.427 6.171 13.594 7.671 21.302 3.715 19.105.697 34.403-8.97 45.467-9.563 10.957-24.608 16.513-44.698 16.513m-45.632-90h19.31c12.802 0 22.337 2.41 28.602 7.234 6.268 4.824 10.492 12.876 12.688 24.156 2.102 10.833 1.145 18.477-2.87 22.93-4.02 4.453-12.06 6.68-24.123 6.68h-21.753l-11.854-61m45.63 84c18.368 0 31.767-4.82 40.19-14.46 8.42-9.642 10.956-23.1 7.596-40.376-1.383-7.117-3.722-13.624-7.015-19.52-3.29-5.898-7.6-11.292-12.92-16.184-6.34-5.93-13.38-10.16-21.13-12.673-7.751-2.53-17.621-3.787-29.621-3.787h-27.2l-7.53-38.75h-31.75l28.326 145.75h61.054"/></g></svg>