<svg viewBox="0 0 112 113" xmlns="http://www.w3.org/2000/svg" fill-rule="evenodd" clip-rule="evenodd" stroke-linejoin="round" stroke-miterlimit="1.414"><g fill-rule="nonzero"><path d="M55.51.316c-4.583.022-8.961.413-12.812 1.094-11.347 2.005-13.407 6.2-13.407 13.938v10.218h26.813v3.407H19.229c-7.793 0-14.616 4.683-16.75 13.593-2.462 10.213-2.571 16.586 0 27.25 1.906 7.938 6.457 13.594 14.25 13.594h9.219V71.16c0-8.85 7.657-16.656 16.75-16.656h26.781c7.455 0 13.406-6.138 13.406-13.625V15.348c0-7.267-6.13-12.725-13.406-13.938C64.873.643 60.094.295 55.51.316zm-14.5 8.219c2.77 0 5.031 2.299 5.031 5.125 0 2.817-2.261 5.094-5.031 5.094-2.779 0-5.031-2.277-5.031-5.094 0-2.826 2.252-5.125 5.031-5.125z" fill="url(#_Linear1)"/><path d="M86.229 28.973v11.906c0 9.231-7.826 17-16.75 17H42.698c-7.336 0-13.407 6.278-13.407 13.625v25.531c0 7.267 6.319 11.54 13.407 13.625 8.487 2.496 16.626 2.947 26.781 0 6.75-1.954 13.406-5.887 13.406-13.625V86.816H56.104V83.41h40.187c7.793 0 10.697-5.435 13.407-13.594 2.799-8.398 2.68-16.475 0-27.25-1.926-7.757-5.604-13.593-13.407-13.593H86.229zM71.166 93.629c2.78 0 5.032 2.277 5.032 5.094 0 2.826-2.252 5.125-5.032 5.125-2.769 0-5.031-2.299-5.031-5.125 0-2.817 2.262-5.094 5.031-5.094z" fill="url(#_Linear2)"/></g><defs><linearGradient id="_Linear1" x2="1" gradientUnits="userSpaceOnUse" gradientTransform="scale(81.2332) rotate(40.98 -.002 .012)"><stop offset="0" stop-color="#5a9fd4"/><stop offset="1" stop-color="#306998"/></linearGradient><linearGradient id="_Linear2" x2="1" gradientUnits="userSpaceOnUse" gradientTransform="scale(-38.1867) rotate(55.006 1.538 -3.055)"><stop offset="0" stop-color="#ffd43b"/><stop offset="1" stop-color="#ffe873"/></linearGradient></defs></svg>