<svg viewBox="0 0 600 600" xmlns="http://www.w3.org/2000/svg" fill-rule="evenodd" clip-rule="evenodd" stroke-linecap="round" stroke-linejoin="round" stroke-miterlimit="1.5"><path d="M75 120l-8.027 180.599a999.96 999.96 0 0 0 0 88.802L75 570l180.599 8.027a999.96 999.96 0 0 0 88.802 0L525 570l8.027-180.599a999.96 999.96 0 0 0 0-88.802L525 120l-180.599-8.027a999.96 999.96 0 0 0-88.802 0L75 120z" fill="#323232" stroke="#22241e" stroke-width="5"/><g transform="matrix(1.25 0 0 1.25 -131.25 -7.5)"><circle cx="345" cy="130" r="100" fill="#e1e2e0"/><clipPath id="a"><circle cx="345" cy="130" r="100"/></clipPath><g clip-path="url(#a)"><path d="M345 218l-5.6-69.6h11.2L345 218z" fill="#ae4b4b"/></g><path d="M345.323 30.001l.323.001.323.003.323.003.322.005.322.005.322.007.321.008.322.008.321.01.321.011.32.011.32.013.32.014.32.015.32.015.319.017.319.018.319.018.318.02.318.021.318.021.318.023.317.024.317.024.317.026.317.027.316.027.316.029.316.03.315.03.315.032.315.032.315.034.314.034.314.036.314.036.313.037.313.039.313.039.312.04.313.042.312.042.311.043.311.044.311.045.311.046.31.047.311.048.309.049.31.05.309.051.309.051.308.053.308.054.308.054.308.056.307.056.307.057.306.059.306.059.306.06.306.061.305.062.305.063.304.064.304.065.304.066.304.066.303.068.303.068.302.07.302.07.302.071.301.072.302.073.3.074.301.075.3.076.299.077.299.077.299.079.299.079.298.08.298.081.297.082.297.083.297.084.296.085.296.086.296.086.295.088.295.088.294.089.295.09.293.091.294.092.292.092.293.094.292.094.292.096.291.096.291.097.291.098.29.099.29.099.289.101.289.101.288.102.288.103.288.104.288.105.286.106.287.106.286.108.286.108.285.109.285.11.284.11.284.112.284.112.283.114.283.114.282.115.282.115.281.117.281.117.281.119.28.119.28.12.279.12.279.122.278.122.278.124.278.124.277.124.276.126.277.127.275.127.276.128.274.129.275.13.274.13.273.131.273.133.273.132.272.134.271.135.271.135.271.136.27.137.27.138.269.138.269.14.268.14.268.141.267.141.267.143.267.143.266.144.265.145.265.145.264.147.264.147.264.148.263.148.262.15.262.15.262.151.261.152.26.152.26.153.26.154.259.155.258.156.258.156.258.157.257.158.256.158.256.16.255.16.255.16.255.162.254.162.253.163.253.164.252.165.252.165.251.166.251.167.25.167.25.168.249.169.248.17.248.17.248.171.247.172.246.173.246.173.246.174.244.174.245.176.243.176.244.177.242.177.242.179.242.179.241.179.24.181.24.181.239.182.239.182.238.183.238.184.237.185.236.185.236.186.235.187.235.187.234.188.234.189.233.189.232.19.232.191.231.192.231.192.23.193.229.193.229.194.229.195.227.196.228.196.226.197.226.197.225.198.225.199.224.2.224.2.223.201.222.201.222.202.221.203.22.204.22.204.22.204.218.206.218.206.218.207.217.207.216.208.215.209.215.209.215.21.213.21.213.211.213.212.212.213.211.213.21.213.21.215.209.215.209.215.208.216.207.217.207.218.206.218.206.218.204.22.204.22.204.22.203.221.202.222.201.222.201.223.2.224.2.224.199.225.198.225.197.226.197.226.196.228.196.227.195.229.194.229.193.229.193.23.192.231.192.231.191.232.19.232.189.233.189.234.188.234.187.235.187.235.186.236.185.236.185.237.184.238.183.238.182.239.182.239.181.24.181.24.179.241.179.242.179.242.177.242.177.244.176.243.176.245.174.244.174.246.173.246.173.246.172.247.171.248.17.248.17.248.169.249.168.25.167.25.167.251.166.251.165.252.165.252.164.253.163.253.162.254.162.255.16.255.16.255.16.256.158.256.158.257.157.258.156.258.156.258.155.259.154.26.153.26.152.26.152.261.151.262.15.262.15.262.148.263.148.264.147.264.147.264.145.265.145.265.144.266.143.267.143.267.141.267.141.268.14.268.14.269.138.269.138.27.137.27.136.271.135.271.135.271.134.272.132.273.133.273.131.273.13.274.13.275.129.274.128.276.127.275.127.277.126.276.124.277.124.278.124.278.122.278.122.279.12.279.12.28.119.28.119.281.117.281.117.281.115.282.115.282.114.283.114.283.112.284.112.284.11.284.11.285.109.285.108.286.108.286.106.287.106.286.105.288.104.288.103.288.102.288.101.289.101.289.099.29.099.29.098.291.097.291.096.291.096.292.094.292.094.293.092.292.092.294.091.293.09.295.089.294.088.295.088.295.086.296.086.296.085.296.084.297.083.297.082.297.081.298.08.298.079.299.079.299.077.299.077.299.076.3.075.301.074.3.073.302.072.301.071.302.07.302.07.302.068.303.068.303.066.304.066.304.065.304.064.304.063.305.062.305.061.306.06.306.059.306.059.306.057.307.056.307.056.308.054.308.054.308.053.308.051.309.051.309.05.31.049.309.048.311.047.31.046.311.045.311.044.311.043.311.042.312.042.313.04.312.039.313.039.313.037.313.036.314.036.314.034.314.034.315.032.315.032.315.03.315.03.316.029.316.027.316.027.317.026.317.024.317.024.317.023.318.021.318.021.318.02.318.018.319.018.319.017.319.015.32.015.32.014.32.013.32.011.32.011.321.01.321.008.322.008.321.007.322.005.322.005.322.003.323.003.323.001.323.001.323-.001.323-.001.323-.003.323-.003.323-.005.322-.005.322-.007.322-.008.321-.008.322-.01.321-.011.321-.011.32-.013.32-.014.32-.015.32-.015.32-.017.319-.018.319-.018.319-.02.318-.021.318-.021.318-.023.318-.024.317-.024.317-.026.317-.027.317-.027.316-.029.316-.03.316-.03.315-.032.315-.032.315-.034.315-.034.314-.036.314-.036.314-.037.313-.039.313-.039.313-.04.312-.042.313-.042.312-.043.311-.044.311-.045.311-.046.311-.047.31-.048.311-.049.309-.05.31-.051.309-.051.309-.053.308-.054.308-.054.308-.056.308-.056.307-.057.307-.059.306-.059.306-.06.306-.061.306-.062.305-.063.305-.064.304-.065.304-.066.304-.066.304-.068.303-.068.303-.07.302-.07.302-.071.302-.072.301-.073.302-.074.3-.075.301-.076.3-.077.299-.077.299-.079.299-.079.299-.08.298-.081.298-.082.297-.083.297-.084.297-.085.296-.086.296-.086.296-.088.295-.088.295-.089.294-.09.295-.091.293-.092.294-.092.292-.094.293-.094.292-.096.292-.096.291-.097.291-.098.291-.099.29-.099.29-.101.289-.101.289-.102.288-.103.288-.104.288-.105.288-.106.286-.106.287-.108.286-.108.286-.109.285-.11.285-.11.284-.112.284-.112.284-.114.283-.114.283-.115.282-.115.282-.117.281-.117.281-.119.281-.119.28-.12.28-.12.279-.122.279-.122.278-.124.278-.124.278-.124.277-.126.276-.127.277-.127.275-.128.276-.129.274-.13.275-.13.274-.131.273-.133.273-.132.273-.134.272-.135.271-.135.271-.136.271-.137.27-.138.27-.138.269-.14.269-.14.268-.141.268-.141.267-.143.267-.143.267-.144.266-.145.265-.145.265-.147.264-.147.264-.148.264-.148.263-.15.262-.15.262-.151.262-.152.261-.152.26-.153.26-.154.26-.155.259-.156.258-.156.258-.157.258-.158.257-.158.256-.16.256-.16.255-.16.255-.162.255-.162.254-.163.253-.164.253-.165.252-.165.252-.166.251-.167.251-.167.25-.168.25-.169.249-.17.248-.17.248-.171.248-.172.247-.173.246-.173.246-.174.246-.174.244-.176.245-.176.243-.177.244-.177.242-.179.242-.179.242-.179.241-.181.24-.181.24-.182.239-.182.239-.183.238-.184.238-.185.237-.185.236-.186.236-.187.235-.187.235-.188.234-.189.234-.189.233-.19.232-.191.232-.192.231-.192.231-.193.23-.193.229-.194.229-.195.229-.196.227-.196.228-.197.226-.197.226-.198.225-.199.225-.2.224-.2.224-.201.223-.201.222-.202.222-.203.221-.204.22-.204.22-.204.22-.206.218-.206.218-.207.218-.207.217-.208.216-.209.215-.209.215-.21.215-.21.213-.211.213-.212.213-.213.212-.213.211-.213.21-.215.21-.215.209-.215.209-.216.208-.217.207-.218.207-.218.206-.218.206-.22.204-.22.204-.22.204-.221.203-.222.202-.222.201-.223.201-.224.2-.224.2-.225.199-.225.198-.226.197-.226.197-.228.196-.227.196-.229.195-.229.194-.229.193-.23.193-.231.192-.231.192-.232.191-.232.19-.233.189-.234.189-.234.188-.235.187-.235.187-.236.186-.236.185-.237.185-.238.184-.238.183-.239.182-.239.182-.24.181-.24.181-.241.179-.242.179-.242.179-.242.177-.244.177-.243.176-.245.176-.244.174-.246.174-.246.173-.246.173-.247.172-.248.171-.248.17-.248.17-.249.169-.25.168-.25.167-.251.167-.251.166-.252.165-.252.165-.253.164-.253.163-.254.162-.255.162-.255.16-.255.16-.256.16-.256.158-.257.158-.258.157-.258.156-.258.156-.259.155-.26.154-.26.153-.26.152-.261.152-.262.151-.262.15-.262.15-.263.148-.264.148-.264.147-.264.147-.265.145-.265.145-.266.144-.267.143-.267.143-.267.141-.268.141-.268.14-.269.14-.269.138-.27.138-.27.137-.271.136-.271.135-.271.135-.272.134-.273.132-.273.133-.273.131-.274.13-.275.13-.274.129-.276.128-.275.127-.277.127-.276.126-.277.124-.278.124-.278.124-.278.122-.279.122-.279.12-.28.12-.28.119-.281.119-.281.117-.281.117-.282.115-.282.115-.283.114-.283.114-.284.112-.284.112-.284.11-.285.11-.285.109-.286.108-.286.108-.287.106-.286.106-.288.105-.288.104-.288.103-.288.102-.289.101-.289.101-.29.099-.29.099-.291.098-.291.097-.291.096-.292.096-.292.094-.293.094-.292.092-.294.092-.293.091-.295.09-.294.089-.295.088-.295.088-.296.086-.296.086-.296.085-.297.084-.297.083-.297.082-.298.081-.298.08-.299.079-.299.079-.299.077-.299.077-.3.076-.301.075-.3.074-.302.073-.301.072-.302.071-.302.07-.302.07-.303.068-.303.068-.304.066-.304.066-.304.065-.304.064-.305.063-.305.062-.306.061-.306.06-.306.059-.306.059-.307.057-.307.056-.308.056-.308.054-.308.054-.308.053-.309.051-.309.051-.31.05-.309.049-.311.048-.31.047-.311.046-.311.045-.311.044-.311.043-.312.042-.313.042-.312.04-.313.039-.313.039-.313.037-.314.036-.314.036-.314.034-.315.034-.315.032-.315.032-.315.03-.316.03-.316.029-.316.027-.317.027-.317.026-.317.024-.317.024-.318.023-.318.021-.318.021-.318.02-.319.018-.319.018-.319.017-.32.015-.32.015-.32.014-.32.013-.32.011-.321.011-.321.01-.322.008-.321.008-.322.007-.322.005-.322.005-.323.003-.323.003-.323.001L345 230l-.323-.001-.323-.001-.323-.003-.323-.003-.322-.005-.322-.005-.322-.007-.321-.008-.322-.008-.321-.01-.321-.011-.32-.011-.32-.013-.32-.014-.32-.015-.32-.015-.319-.017-.319-.018-.319-.018-.318-.02-.318-.021-.318-.021-.318-.023-.317-.024-.317-.024-.317-.026-.317-.027-.316-.027-.316-.029-.316-.03-.315-.03-.315-.032-.315-.032-.315-.034-.314-.034-.314-.036-.314-.036-.313-.037-.313-.039-.313-.039-.312-.04-.313-.042-.312-.042-.311-.043-.311-.044-.311-.045-.311-.046-.31-.047-.311-.048-.309-.049-.31-.05-.309-.051-.309-.051-.308-.053-.308-.054-.308-.054-.308-.056-.307-.056-.307-.057-.306-.059-.306-.059-.306-.06-.306-.061-.305-.062-.305-.063-.304-.064-.304-.065-.304-.066-.304-.066-.303-.068-.303-.068-.302-.07-.302-.07-.302-.071-.301-.072-.302-.073-.3-.074-.301-.075-.3-.076-.299-.077-.299-.077-.299-.079-.299-.079-.298-.08-.298-.081-.297-.082-.297-.083-.297-.084-.296-.085-.296-.086-.296-.086-.295-.088-.295-.088-.294-.089-.295-.09-.293-.091-.294-.092-.292-.092-.293-.094-.292-.094-.292-.096-.291-.096-.291-.097-.291-.098-.29-.099-.29-.099-.289-.101-.289-.101-.288-.102-.288-.103-.288-.104-.288-.105-.286-.106-.287-.106-.286-.108-.286-.108-.285-.109-.285-.11-.284-.11-.284-.112-.284-.112-.283-.114-.283-.114-.282-.115-.282-.115-.281-.117-.281-.117-.281-.119-.28-.119-.28-.12-.279-.12-.279-.122-.278-.122-.278-.124-.278-.124-.277-.124-.276-.126-.277-.127-.275-.127-.276-.128-.274-.129-.275-.13-.274-.13-.273-.131-.273-.133-.273-.132-.272-.134-.271-.135-.271-.135-.271-.136-.27-.137-.27-.138-.269-.138-.269-.14-.268-.14-.268-.141-.267-.141-.267-.143-.267-.143-.266-.144-.265-.145-.265-.145-.264-.147-.264-.147-.264-.148-.263-.148-.262-.15-.262-.15-.262-.151-.261-.152-.26-.152-.26-.153-.26-.154-.259-.155-.258-.156-.258-.156-.258-.157-.257-.158-.256-.158-.256-.16-.255-.16-.255-.16-.255-.162-.254-.162-.253-.163-.253-.164-.252-.165-.252-.165-.251-.166-.251-.167-.25-.167-.25-.168-.249-.169-.248-.17-.248-.17-.248-.171-.247-.172-.246-.173-.246-.173-.246-.174-.244-.174-.245-.176-.243-.176-.244-.177-.242-.177-.242-.179-.242-.179-.241-.179-.24-.181-.24-.181-.239-.182-.239-.182-.238-.183-.238-.184-.237-.185-.236-.185-.236-.186-.235-.187-.235-.187-.234-.188-.234-.189-.233-.189-.232-.19-.232-.191-.231-.192-.231-.192-.23-.193-.229-.193-.229-.194-.229-.195-.227-.196-.228-.196-.226-.197-.226-.197-.225-.198-.225-.199-.224-.2-.224-.2-.223-.201-.222-.201-.222-.202-.221-.203-.22-.204-.22-.204-.22-.204-.218-.206-.218-.206-.218-.207-.217-.207-.216-.208-.215-.209-.215-.209-.215-.21-.213-.21-.213-.211-.213-.212-.212-.213-.211-.213-.21-.213-.21-.215-.209-.215-.209-.215-.208-.216-.207-.217-.207-.218-.206-.218-.206-.218-.204-.22-.204-.22-.204-.22-.203-.221-.202-.222-.201-.222-.201-.223-.2-.224-.2-.224-.199-.225-.198-.225-.197-.226-.197-.226-.196-.228-.196-.227-.195-.229-.194-.229-.193-.229-.193-.23-.192-.231-.192-.231-.191-.232-.19-.232-.189-.233-.189-.234-.188-.234-.187-.235-.187-.235-.186-.236-.185-.236-.185-.237-.184-.238-.183-.238-.182-.239-.182-.239-.181-.24-.181-.24-.179-.241-.179-.242-.179-.242-.177-.242-.177-.244-.176-.243-.176-.245-.174-.244-.174-.246-.173-.246-.173-.246-.172-.247-.171-.248-.17-.248-.17-.248-.169-.249-.168-.25-.167-.25-.167-.251-.166-.251-.165-.252-.165-.252-.164-.253-.163-.253-.162-.254-.162-.255-.16-.255-.16-.255-.16-.256-.158-.256-.158-.257-.157-.258-.156-.258-.156-.258-.155-.259-.154-.26-.153-.26-.152-.26-.152-.261-.151-.262-.15-.262-.15-.262-.148-.263-.148-.264-.147-.264-.147-.264-.145-.265-.145-.265-.144-.266-.143-.267-.143-.267-.141-.267-.141-.268-.14-.268-.14-.269-.138-.269-.138-.27-.137-.27-.136-.271-.135-.271-.135-.271-.134-.272-.132-.273-.133-.273-.131-.273-.13-.274-.13-.275-.129-.274-.128-.276-.127-.275-.127-.277-.126-.276-.124-.277-.124-.278-.124-.278-.122-.278-.122-.279-.12-.279-.12-.28-.119-.28-.119-.281-.117-.281-.117-.281-.115-.282-.115-.282-.114-.283-.114-.283-.112-.284-.112-.284-.11-.284-.11-.285-.109-.285-.108-.286-.108-.286-.106-.287-.106-.286-.105-.288-.104-.288-.103-.288-.102-.288-.101-.289-.101-.289-.099-.29-.099-.29-.098-.291-.097-.291-.096-.291-.096-.292-.094-.292-.094-.293-.092-.292-.092-.294-.091-.293-.09-.295-.089-.294-.088-.295-.088-.295-.086-.296-.086-.296-.085-.296-.084-.297-.083-.297-.082-.297-.081-.298-.08-.298-.079-.299-.079-.299-.077-.299-.077-.299-.076-.3-.075-.301-.074-.3-.073-.302-.072-.301-.071-.302-.07-.302-.07-.302-.068-.303-.068-.303-.066-.304-.066-.304-.065-.304-.064-.304-.063-.305-.062-.305-.061-.306-.06-.306-.059-.306-.059-.306-.057-.307-.056-.307-.056-.308-.054-.308-.054-.308-.053-.308-.051-.309-.051-.309-.05-.31-.049-.309-.048-.311-.047-.31-.046-.311-.045-.311-.044-.311-.043-.311-.042-.312-.042-.313-.04-.312-.039-.313-.039-.313-.037-.313-.036-.314-.036-.314-.034-.314-.034-.315-.032-.315-.032-.315-.03-.315-.03-.316-.029-.316-.027-.316-.027-.317-.026-.317-.024-.317-.024-.317-.023-.318-.021-.318-.021-.318-.02-.318-.018-.319-.018-.319-.017-.319-.015-.32-.015-.32-.014-.32-.013-.32-.011-.32-.011-.321-.01-.321-.008-.322-.008-.321-.007-.322-.005-.322-.005-.322-.003-.323-.003-.323-.001-.323L245 130l.001-.323.001-.323.003-.323.003-.323.005-.322.005-.322.007-.322.008-.321.008-.322.01-.321.011-.321.011-.32.013-.32.014-.32.015-.32.015-.32.017-.319.018-.319.018-.319.02-.318.021-.318.021-.318.023-.318.024-.317.024-.317.026-.317.027-.317.027-.316.029-.316.03-.316.03-.315.032-.315.032-.315.034-.315.034-.314.036-.314.036-.314.037-.313.039-.313.039-.313.04-.312.042-.313.042-.312.043-.311.044-.311.045-.311.046-.311.047-.31.048-.311.049-.309.05-.31.051-.309.051-.309.053-.308.054-.308.054-.308.056-.308.056-.307.057-.307.059-.306.059-.306.06-.306.061-.306.062-.305.063-.305.064-.304.065-.304.066-.304.066-.304.068-.303.068-.303.07-.302.07-.302.071-.302.072-.301.073-.302.074-.3.075-.301.076-.3.077-.299.077-.299.079-.299.079-.299.08-.298.081-.298.082-.297.083-.297.084-.297.085-.296.086-.296.086-.296.088-.295.088-.295.089-.294.09-.295.091-.293.092-.294.092-.292.094-.293.094-.292.096-.292.096-.291.097-.291.098-.291.099-.29.099-.29.101-.289.101-.289.102-.288.103-.288.104-.288.105-.288.106-.286.106-.287.108-.286.108-.286.109-.285.11-.285.11-.284.112-.284.112-.284.114-.283.114-.283.115-.282.115-.282.117-.281.117-.281.119-.281.119-.28.12-.28.12-.279.122-.279.122-.278.124-.278.124-.278.124-.277.126-.276.127-.277.127-.275.128-.276.129-.274.13-.275.13-.274.131-.273.133-.273.132-.273.134-.272.135-.271.135-.271.136-.271.137-.27.138-.27.138-.269.14-.269.14-.268.141-.268.141-.267.143-.267.143-.267.144-.266.145-.265.145-.265.147-.264.147-.264.148-.264.148-.263.15-.262.15-.262.151-.262.152-.261.152-.26.153-.26.154-.26.155-.259.156-.258.156-.258.157-.258.158-.257.158-.256.16-.256.16-.255.16-.255.162-.255.162-.254.163-.253.164-.253.165-.252.165-.252.166-.251.167-.251.167-.25.168-.25.169-.249.17-.248.17-.248.171-.248.172-.247.173-.246.173-.246.174-.246.174-.244.176-.245.176-.243.177-.244.177-.242.179-.242.179-.242.179-.241.181-.24.181-.24.182-.239.182-.239.183-.238.184-.238.185-.237.185-.236.186-.236.187-.235.187-.235.188-.234.189-.234.189-.233.19-.232.191-.232.192-.231.192-.231.193-.23.193-.229.194-.229.195-.229.196-.227.196-.228.197-.226.197-.226.198-.225.199-.225.2-.224.2-.224.201-.223.201-.222.202-.222.203-.221.204-.22.204-.22.204-.22.206-.218.206-.218.207-.218.207-.217.208-.216.209-.215.209-.215.21-.215.21-.213.211-.213.212-.213.213-.212.213-.211.213-.21.215-.21.215-.209.215-.209.216-.208.217-.207.218-.207.218-.206.218-.206.22-.204.22-.204.22-.204.221-.203.222-.202.222-.201.223-.201.224-.2.224-.2.225-.199.225-.198.226-.197.226-.197.228-.196.227-.196.229-.195.229-.194.229-.193.23-.193.231-.192.231-.192.232-.191.232-.19.233-.189.234-.189.234-.188.235-.187.235-.187.236-.186.236-.185.237-.185.238-.184.238-.183.239-.182.239-.182.24-.181.24-.181.241-.179.242-.179.242-.179.242-.177.244-.177.243-.176.245-.176.244-.174.246-.174.246-.173.246-.173.247-.172.248-.171.248-.17.248-.17.249-.169.25-.168.25-.167.251-.167.251-.166.252-.165.252-.165.253-.164.253-.163.254-.162.255-.162.255-.16.255-.16.256-.16.256-.158.257-.158.258-.157.258-.156.258-.156.259-.155.26-.154.26-.153.26-.152.261-.152.262-.151.262-.15.262-.15.263-.148.264-.148.264-.147.264-.147.265-.145.265-.145.266-.144.267-.143.267-.143.267-.141.268-.141.268-.14.269-.14.269-.138.27-.138.27-.137.271-.136.271-.135.271-.135.272-.134.273-.132.273-.133.273-.131.274-.13.275-.13.274-.129.276-.128.275-.127.277-.127.276-.126.277-.124.278-.124.278-.124.278-.122.279-.122.279-.12.28-.12.28-.119.281-.119.281-.117.281-.117.282-.115.282-.115.283-.114.283-.114.284-.112.284-.112.284-.11.285-.11.285-.109.286-.108.286-.108.287-.106.286-.106.288-.105.288-.104.288-.103.288-.102.289-.101.289-.101.29-.099.29-.099.291-.098.291-.097.291-.096.292-.096.292-.094.293-.094.292-.092.294-.092.293-.091.295-.09.294-.089.295-.088.295-.088.296-.086.296-.086.296-.085.297-.084.297-.083.297-.082.298-.081.298-.08.299-.079.299-.079.299-.077.299-.077.3-.076.301-.075.3-.074.302-.073.301-.072.302-.071.302-.07.302-.07.303-.068.303-.068.304-.066.304-.066.304-.065.304-.064.305-.063.305-.062.306-.061.306-.06.306-.059.306-.059.307-.057.307-.056.308-.056.308-.054.308-.054.308-.053.309-.051.309-.051.31-.05.309-.049.311-.048.31-.047.311-.046.311-.045.311-.044.311-.043.312-.042.313-.042.312-.04.313-.039.313-.039.313-.037.314-.036.314-.036.314-.034.315-.034.315-.032.315-.032.315-.03.316-.03.316-.029.316-.027.317-.027.317-.026.317-.024.317-.024.318-.023.318-.021.318-.021.318-.02.319-.018.319-.018.319-.017.32-.015.32-.015.32-.014.32-.013.32-.011.321-.011.321-.01.322-.008.321-.008.322-.007.322-.005.322-.005.323-.003.323-.003.323-.001L345 30l.323.001zM344.715 42l-.285.002-.285.002-.284.003-.285.004-.284.005-.283.006-.284.007-.283.007-.283.009-.283.009-.283.011-.282.011-.282.012-.282.013-.281.014-.282.015-.281.015-.281.017-.28.017-.28.018-.28.019-.28.02-.28.021-.279.022-.279.022-.279.024-.278.024-.278.025-.278.026-.278.027-.277.028-.277.029-.277.029-.277.031-.276.031-.276.032-.276.033-.276.033-.275.035-.275.035-.275.037-.274.037-.274.038-.274.039-.274.039-.273.041-.273.041-.273.042-.272.043-.272.044-.272.045-.272.045-.271.047-.271.047-.271.048-.27.048-.27.05-.27.051-.27.051-.269.052-.269.053-.268.054-.269.054-.268.055-.267.057-.268.057-.267.057-.267.059-.266.059-.267.06-.265.062-.266.061-.265.063-.265.063-.265.065-.264.065-.264.065-.264.067-.263.067-.263.069-.263.069-.263.069-.262.071-.262.071-.261.072-.261.073-.261.074-.26.074-.261.076-.259.076-.26.077-.259.077-.259.079-.258.079-.258.08-.258.08-.258.082-.257.082-.256.083-.257.084-.256.084-.256.086-.255.086-.255.087-.255.087-.254.088-.254.09-.254.089-.253.091-.253.091-.253.092-.252.093-.252.094-.251.094-.251.095-.251.096-.251.097-.25.097-.249.098-.25.099-.249.1-.248.1-.248.101-.248.102-.248.102-.247.104-.246.104-.247.104-.246.106-.245.106-.245.107-.245.107-.245.109-.244.109-.243.11-.244.11-.243.111-.242.112-.242.113-.242.113-.241.114-.241.115-.24.116-.24.116-.24.117-.239.117-.239.119-.239.119-.238.119-.238.121-.237.121-.237.122-.236.122-.236.124-.236.124-.235.124-.235.125-.234.127-.234.126-.234.128-.233.128-.232.128-.233.13-.231.13-.232.131-.231.131-.23.132-.23.133-.23.134-.229.134-.229.135-.229.135-.227.137-.228.136-.227.138-.226.138-.227.139-.225.14-.226.14-.224.141-.225.141-.224.142-.223.143-.223.144-.223.144-.222.145-.221.145-.222.146-.22.147-.221.148-.219.148-.22.148-.218.15-.219.15-.218.15-.217.151-.217.152-.217.153-.216.153-.215.154-.215.154-.215.155-.214.156-.214.157-.213.156-.212.158-.213.158-.211.159-.212.16-.21.16-.21.16-.21.162-.209.162-.209.162-.208.163-.208.164-.207.165-.207.165-.206.165-.206.166-.205.167-.205.168-.204.168-.204.168-.203.17-.203.169-.202.171-.201.171-.201.171-.201.173-.2.172-.2.174-.199.174-.198.174-.198.175-.197.176-.197.177-.197.177-.196.177-.195.178-.195.179-.194.179-.194.18-.193.18-.193.181-.191.181-.192.182-.191.183-.191.183-.189.184-.19.185-.189.184-.188.186-.187.186-.188.186-.186.188-.186.187-.186.189-.184.188-.185.19-.184.19-.183.19-.182.191-.182.191-.182.193-.181.192-.18.193-.18.194-.179.194-.179.195-.178.195-.178.196-.177.197-.176.196-.175.198-.176.198-.174.198-.174.199-.174.2-.172.2-.173.201-.171.201-.171.201-.171.202-.169.203-.17.203-.168.204-.168.204-.168.205-.167.205-.166.206-.165.206-.166.207-.164.207-.163.207-.164.209-.162.209-.162.209-.162.209-.16.211-.16.21-.16.212-.159.211-.158.213-.157.212-.157.213-.157.214-.156.214-.155.215-.154.215-.154.215-.153.216-.153.217-.152.217-.151.217-.15.218-.15.218-.15.219-.148.22-.149.219-.147.221-.147.22-.146.222-.145.221-.145.222-.144.223-.144.223-.143.223-.142.224-.141.225-.141.224-.14.226-.14.225-.139.226-.138.227-.138.227-.136.228-.137.227-.135.229-.135.229-.134.229-.134.23-.133.23-.132.23-.131.231-.131.232-.13.231-.13.233-.128.232-.128.233-.128.234-.127.234-.125.234-.126.235-.124.235-.124.236-.124.236-.122.236-.122.237-.121.237-.121.238-.119.238-.119.239-.119.238-.117.24-.117.24-.116.24-.116.24-.115.241-.114.241-.113.242-.113.242-.112.243-.111.243-.11.243-.11.243-.109.244-.109.245-.107.244-.107.246-.106.245-.106.246-.104.246-.104.247-.104.247-.102.248-.102.248-.101.248-.1.249-.1.248-.099.25-.098.249-.097.25-.097.251-.096.251-.095.251-.094.251-.094.252-.093.252-.092.253-.091.253-.091.253-.089.254-.09.254-.088.254-.087.255-.087.255-.086.255-.086.256-.084.256-.084.257-.083.256-.082.257-.082.258-.08.258-.08.258-.079.258-.079.259-.077.259-.077.26-.076.259-.076.261-.074.26-.074.261-.073.261-.072.261-.071.262-.071.263-.069.262-.069.262-.069.264-.067.263-.067.264-.065.264-.065.264-.065.265-.063.265-.063.265-.062.266-.061.266-.06.266-.059.266-.059.267-.057.267-.057.268-.057.267-.055.268-.055.269-.053.268-.053.269-.052.27-.051.269-.051.27-.05.27-.048.271-.048.27-.047.271-.047.272-.045.271-.045.272-.044.272-.043.272-.042.273-.041.273-.041.274-.039.273-.039.274-.038.274-.037.274-.037.275-.035.275-.035.275-.033.276-.033.276-.032.276-.031.276-.031.277-.029.276-.029.278-.028.277-.027.278-.026.278-.025.278-.024.278-.024.279-.022.279-.022.279-.021.28-.02.28-.019.28-.018.28-.017.28-.017.281-.015.281-.015.282-.014.281-.013.282-.012.282-.011.282-.011.283-.009.283-.009.283-.007.283-.007.284-.006.283-.005.284-.004.285-.003.284-.002.285-.002.285v.57l.002.285.002.285.003.284.004.285.005.284.006.283.007.284.007.283.009.283.009.283.011.283.011.282.012.282.013.282.014.281.015.282.015.281.017.281.017.28.018.28.019.28.02.28.021.28.022.279.022.279.024.279.024.278.025.278.026.278.027.278.028.277.029.278.029.276.031.277.031.276.032.276.033.276.033.276.035.275.035.275.037.275.037.274.038.274.039.274.039.273.041.274.041.273.042.273.043.272.044.272.045.272.045.271.047.272.047.271.048.27.048.271.05.27.051.27.051.269.052.27.053.269.053.268.055.269.055.268.057.267.057.268.057.267.059.267.059.266.06.266.061.266.062.266.063.265.063.265.065.265.065.264.065.264.067.264.067.263.069.264.069.262.069.262.071.263.071.262.072.261.073.261.074.261.074.26.076.261.076.259.077.26.077.259.079.259.079.258.08.258.08.258.082.258.082.257.083.256.084.257.084.256.086.256.086.255.087.255.087.255.088.254.089.254.09.254.091.253.091.253.092.253.093.252.094.252.094.251.095.251.096.251.097.251.097.25.098.249.099.25.1.248.1.249.101.248.102.248.102.248.104.247.104.247.104.246.106.246.106.245.107.246.107.244.109.245.109.244.11.243.11.243.111.243.112.243.113.242.113.242.114.241.115.241.116.24.116.24.117.24.117.24.119.238.119.239.119.238.121.238.121.237.122.237.122.236.124.236.124.236.124.235.126.235.126.234.126.234.128.234.128.233.128.232.13.233.13.231.131.232.131.231.132.23.133.23.134.23.134.229.135.229.135.229.137.227.136.228.138.227.138.226.139.227.14.225.14.226.141.224.141.225.142.224.143.223.144.223.144.223.145.222.145.221.146.222.147.22.148.221.148.219.148.22.15.219.15.218.15.218.151.217.152.217.153.217.153.216.154.215.154.215.155.215.156.214.157.214.157.213.157.212.158.212.159.212.16.212.16.21.16.211.162.209.162.209.162.209.164.209.163.207.164.207.166.207.165.206.166.206.167.205.168.205.168.204.168.204.17.203.169.203.171.202.171.201.171.201.173.201.172.2.174.2.174.199.174.198.175.198.176.198.177.196.176.197.178.196.178.195.179.195.179.194.18.194.18.193.181.192.182.193.181.191.183.191.184.191.183.189.185.19.184.188.186.189.186.187.186.188.188.186.187.186.189.186.188.184.19.185.189.183.191.184.191.183.191.181.193.182.192.181.193.18.194.18.194.179.195.179.195.178.196.178.197.176.196.177.198.176.198.175.198.174.199.174.2.174.2.172.201.173.201.171.201.171.202.171.203.169.203.17.204.168.204.168.205.168.205.167.206.166.206.165.207.166.207.164.207.163.209.164.209.162.209.162.209.162.211.16.21.16.212.16.212.159.212.158.212.157.213.157.214.157.214.156.215.155.214.154.216.154.216.153.217.153.217.152.217.151.218.15.219.15.218.15.219.148.221.149.219.147.221.147.222.146.221.145.223.145.222.144.223.144.223.143.224.142.225.141.225.141.225.14.225.14.227.139.226.138.227.137.227.137.229.137.228.135.229.135.229.134.229.134.23.132.231.133.231.131.231.131.232.13.233.13.233.128.233.128.233.128.234.126.234.127.235.125.235.125.236.123.236.123.236.123.237.122.238.121.237.121.238.119.239.119.239.119.239.117.24.117.24.116.24.116.241.115.241.114.242.113.242.113.242.112.243.111.244.111.244.109.243.109.245.109.245.107.245.107.245.106.246.106.247.105.246.103.247.104.248.102.248.102.248.101.248.1.249.1.25.099.249.098.25.097.251.097.25.095.252.096.251.094.252.094.252.093.253.092.253.091.253.091.254.089.254.09.254.088.255.088.255.086.255.086.256.086.256.084.257.084.256.083.257.082.258.082.257.08.259.08.259.08.258.078.259.077.26.077.26.076.26.076.26.074.261.074.261.073.262.072.262.071.261.071.263.069.262.069.264.069.263.067.264.067.264.066.264.064.265.065.265.063.265.063.265.061.266.061.267.061.266.059.267.059.267.057.267.057.268.057.268.055.269.055.269.053.268.053.269.052.27.051.27.051.27.05.27.048.271.048.271.047.271.047.272.045.272.045.272.044.273.043.272.042.273.041.273.041.274.039.274.039.274.038.274.037.275.037.275.035.275.035.276.033.276.033.276.032.276.031.276.031.278.029.277.029.277.028.278.027.278.026.278.025.278.024.279.024.279.022.279.022.28.021.28.02.279.019.281.018.281.017.28.017.281.015.282.015.281.014.282.013.282.012.283.011.282.011.282.009.284.009.283.007.284.007.283.006.285.005.284.004.284.003.285.002.285.002h.57l.285-.002.285-.002.284-.003.284-.004.285-.005.283-.006.284-.007.283-.007.284-.009.282-.009.282-.011.283-.011.282-.012.282-.013.281-.014.282-.015.281-.015.28-.017.281-.017.281-.018.279-.019.28-.02.28-.021.279-.022.279-.022.279-.024.278-.024.278-.025.278-.026.278-.027.277-.028.277-.029.278-.029.276-.031.276-.031.276-.032.276-.033.276-.033.275-.035.275-.035.275-.037.274-.037.274-.038.274-.039.274-.039.273-.041.273-.041.272-.042.273-.043.272-.044.272-.045.272-.045.271-.047.271-.047.271-.048.27-.048.27-.05.27-.051.27-.051.269-.052.268-.053.269-.053.269-.055.268-.055.268-.057.267-.057.267-.057.267-.059.266-.059.267-.061.266-.061.265-.061.265-.063.265-.063.265-.065.264-.064.264-.066.264-.067.263-.067.264-.069.262-.069.263-.069.261-.071.262-.071.262-.072.261-.073.261-.074.26-.074.26-.076.26-.076.26-.077.259-.077.258-.078.259-.08.259-.08.257-.08.258-.082.257-.082.256-.083.257-.084.256-.084.256-.086.255-.086.255-.086.255-.088.254-.088.254-.09.254-.089.253-.091.253-.091.253-.092.252-.093.252-.094.251-.094.252-.095.25-.096.251-.097.25-.097.249-.098.25-.099.249-.1.248-.1.248-.101.248-.102.248-.102.247-.104.246-.103.247-.105.246-.106.245-.106.245-.107.245-.107.245-.109.243-.109.244-.109.244-.111.243-.111.242-.112.242-.113.242-.113.241-.114.241-.115.241-.116.24-.116.239-.117.239-.117.239-.119.239-.119.238-.12.237-.12.238-.121.237-.122.236-.123.236-.123.236-.123.235-.125.235-.125.234-.127.234-.126.233-.127.233-.128.233-.129.233-.13.232-.13.231-.131.23-.131.231-.133.231-.132.229-.134.23-.134.228-.135.228-.135.229-.137.227-.136.226-.138.228-.138.226-.139.225-.14.225-.14.225-.141.225-.141.224-.142.224-.144.222-.143.222-.144.223-.145.221-.145.222-.146.22-.147.22-.147.22-.149.22-.148.219-.15.218-.15.218-.15.217-.152.217-.151.217-.153.216-.153.215-.154.216-.155.214-.155.214-.155.214-.156.213-.157.212-.158.213-.158.212-.159.21-.159.211-.161.211-.161.209-.161.209-.162.209-.162.209-.164.207-.163.207-.164.207-.166.206-.165.206-.166.205-.167.205-.167.204-.169.204-.168.203-.169.202-.17.203-.171.201-.171.201-.171.201-.173.2-.173.199-.173.2-.174.198-.174.198-.175.197-.176.197-.177.197-.177.196-.177.195-.178.195-.179.194-.179.194-.18.193-.18.192-.181.193-.182.191-.182.191-.182.19-.183.19-.184.19-.185.188-.184.189-.186.187-.186.188-.186.186-.188.186-.187.185-.188.185-.189.185-.19.184-.19.183-.19.183-.191.182-.192.181-.191.181-.193.18-.193.18-.194.179-.194.179-.195.178-.195.177-.196.177-.197.177-.196.176-.198.175-.198.174-.198.174-.199.174-.2.172-.2.173-.201.171-.201.171-.201.171-.202.169-.203.17-.203.168-.204.168-.204.168-.205.167-.205.166-.206.166-.206.165-.207.164-.207.164-.208.163-.208.162-.208.162-.21.162-.21.16-.21.16-.21.16-.212.159-.211.158-.212.158-.213.156-.213.157-.214.156-.214.155-.215.154-.214.154-.216.153-.216.153-.217.152-.217.151-.217.15-.218.15-.219.15-.218.148-.219.149-.221.147-.219.147-.221.146-.222.145-.221.145-.223.144-.222.144-.223.143-.223.142-.224.141-.225.141-.225.14-.225.14-.225.139-.227.138-.226.137-.227.137-.227.137-.229.135-.228.135-.229.134-.229.134-.229.132-.23.133-.231.131-.231.131-.231.13-.232.13-.233.128-.233.128-.233.128-.233.126-.234.127-.234.125-.235.125-.235.123-.236.123-.236.123-.236.122-.237.121-.238.121-.237.119-.238.119-.239.119-.239.117-.239.117-.24.116-.24.116-.24.115-.241.114-.241.113-.242.113-.242.112-.242.111-.243.111-.244.109-.244.109-.243.109-.245.107-.245.107-.245.106-.245.106-.246.105-.247.103-.246.104-.247.102-.248.102-.248.101-.248.1-.248.1-.249.099-.25.098-.249.097-.25.097-.251.095-.25.096-.252.094-.251.094-.252.093-.252.092-.253.091-.253.091-.253.089-.254.09-.254.088-.254.088-.255.086-.255.086-.255.086-.256.084-.256.084-.256.083-.257.082-.257.082-.258.08-.257.08-.259.08-.259.078-.258.077-.259.077-.26.076-.26.076-.26.074-.26.074-.261.073-.261.072-.262.071-.261.071-.262.069-.263.069-.262.069-.264.067-.263.067-.264.066-.264.064-.264.065-.265.063-.265.063-.265.061-.265.061-.266.061-.267.059-.266.059-.267.057-.267.057-.267.057-.268.055-.268.055-.269.053-.268.053-.269.052-.27.051-.269.051-.27.05-.27.048-.27.048-.271.047-.271.047-.271.045-.272.045-.272.044-.272.043-.273.042-.272.041-.273.041-.273.039-.274.039-.274.038-.274.037-.274.037-.275.035-.275.035-.275.033-.276.033-.275.032-.277.031-.276.031-.276.029-.278.029-.277.028-.277.027-.278.026-.278.025-.278.024-.278.024-.279.022-.279.022-.279.021-.28.02-.28.019-.279.018-.281.017-.281.017-.28.015-.281.015-.282.014-.281.013-.282.012-.282.011-.283.011-.282.009-.282.009-.284.007-.283.007-.284.006-.283.005-.285.004-.284.003-.284.002-.285.002-.285v-.57l-.002-.285-.002-.285-.003-.284-.004-.284-.005-.285-.006-.283-.007-.284-.007-.283-.009-.284-.009-.282-.011-.282-.011-.283-.012-.282-.013-.282-.014-.281-.015-.282-.015-.281-.017-.28-.017-.281-.018-.281-.019-.279-.02-.28-.021-.28-.022-.279-.022-.279-.024-.279-.024-.278-.025-.278-.026-.278-.027-.278-.028-.277-.029-.277-.029-.278-.031-.276-.031-.276-.032-.277-.033-.275-.033-.276-.035-.275-.035-.275-.037-.275-.037-.274-.038-.274-.039-.274-.039-.274-.041-.273-.041-.273-.042-.272-.043-.273-.044-.272-.045-.272-.045-.272-.047-.271-.047-.271-.048-.271-.048-.27-.05-.27-.051-.27-.051-.269-.052-.27-.053-.269-.053-.268-.055-.269-.055-.268-.057-.268-.057-.267-.057-.267-.059-.267-.059-.266-.061-.267-.061-.266-.061-.265-.063-.265-.063-.266-.065-.264-.064-.264-.066-.264-.067-.264-.067-.263-.069-.264-.069-.262-.069-.263-.071-.261-.071-.262-.072-.262-.073-.261-.074-.261-.074-.26-.076-.26-.076-.26-.077-.26-.077-.259-.078-.258-.08-.259-.08-.259-.08-.257-.082-.258-.082-.257-.083-.257-.084-.256-.084-.256-.086-.256-.086-.255-.086-.255-.088-.255-.088-.254-.09-.254-.089-.254-.091-.253-.091-.253-.092-.253-.093-.252-.094-.252-.094-.251-.096-.252-.095-.25-.097-.251-.097-.25-.098-.249-.099-.25-.1-.249-.1-.248-.101-.248-.102-.248-.102-.248-.104-.247-.103-.246-.105-.247-.106-.246-.106-.245-.107-.245-.107-.245-.109-.245-.109-.243-.109-.244-.111-.244-.111-.243-.112-.242-.113-.242-.113-.242-.114-.241-.115-.241-.116-.24-.116-.24-.117-.24-.117-.239-.119-.239-.119-.239-.119-.238-.121-.237-.121-.238-.122-.237-.122-.236-.124-.236-.123-.236-.125-.235-.125-.235-.127-.234-.126-.234-.128-.233-.128-.233-.128-.233-.13-.233-.13-.232-.131-.231-.131-.231-.133-.231-.132-.23-.134-.229-.134-.229-.135-.229-.135-.228-.137-.229-.137-.227-.137-.227-.138-.227-.139-.226-.14-.225-.14-.226-.141-.224-.141-.225-.142-.224-.143-.223-.144-.223-.144-.222-.145-.223-.145-.221-.146-.222-.147-.221-.147-.219-.149-.22-.148-.22-.15-.218-.15-.219-.15-.218-.151-.217-.152-.217-.153-.217-.153-.216-.154-.215-.154-.215-.155-.215-.156-.214-.157-.214-.156-.213-.158-.213-.158-.212-.159-.211-.16-.212-.16-.21-.16-.21-.162-.21-.162-.21-.162-.208-.163-.208-.164-.208-.164-.207-.165-.207-.166-.206-.166-.206-.167-.205-.168-.205-.168-.204-.168-.204-.17-.203-.169-.203-.171-.202-.171-.201-.171-.201-.173-.201-.172-.2-.174-.199-.174-.2-.174-.198-.176-.198-.175-.198-.177-.196-.176-.197-.178-.196-.178-.195-.179-.195-.179-.194-.18-.194-.18-.193-.181-.192-.181-.192-.183-.192-.182-.191-.183-.19-.184-.19-.185-.19-.184-.188-.186-.189-.186-.187-.186-.188-.188-.186-.187-.186-.188-.186-.189-.184-.19-.185-.19-.184-.19-.183-.191-.182-.191-.182-.193-.182-.192-.181-.193-.18-.194-.18-.194-.179-.195-.179-.195-.178-.196-.177-.197-.177-.197-.177-.197-.176-.198-.175-.198-.174-.2-.174-.199-.173-.2-.173-.201-.173-.201-.171-.201-.171-.203-.171-.202-.17-.203-.169-.204-.168-.204-.169-.205-.167-.205-.167-.206-.166-.206-.165-.207-.165-.207-.165-.208-.164-.208-.163-.209-.162-.209-.162-.209-.162-.211-.16-.211-.161-.211-.159-.211-.159-.213-.158-.212-.158-.213-.157-.214-.156-.214-.155-.214-.155-.216-.155-.215-.154-.216-.153-.217-.153-.217-.151-.217-.152-.218-.15-.218-.15-.219-.15-.22-.148-.219-.148-.221-.148-.22-.147-.222-.146-.221-.145-.222-.145-.223-.144-.223-.144-.223-.143-.224-.142-.225-.141-.224-.141-.226-.14-.225-.14-.226-.139-.227-.138-.227-.138-.228-.136-.228-.137-.228-.135-.229-.135-.229-.134-.23-.134-.23-.133-.23-.132-.231-.131-.232-.131-.231-.13-.233-.13-.233-.128-.233-.128-.233-.128-.234-.126-.234-.127-.235-.125-.235-.124-.236-.124-.236-.124-.236-.122-.237-.122-.237-.121-.238-.12-.238-.12-.239-.119-.239-.119-.239-.117-.239-.117-.241-.116-.24-.116-.241-.115-.241-.114-.242-.113-.242-.113-.242-.112-.243-.111-.244-.11-.243-.11-.244-.109-.245-.109-.245-.107-.245-.107-.245-.106-.246-.106-.247-.104-.246-.104-.247-.104-.248-.102-.248-.102-.248-.101-.248-.1-.249-.1-.25-.099-.249-.098-.25-.097-.251-.097-.251-.096-.251-.095-.251-.094-.252-.094-.252-.093-.253-.092-.253-.091-.253-.091-.254-.089-.254-.09-.254-.088-.255-.087-.255-.087-.255-.086-.256-.086-.256-.084-.257-.084-.256-.083-.257-.082-.258-.082-.258-.08-.258-.08-.258-.079-.259-.079-.259-.077-.26-.077-.259-.076-.261-.076-.26-.074-.261-.074-.261-.073-.261-.072-.262-.071-.262-.071-.263-.069-.263-.069-.263-.069-.263-.067-.264-.067-.264-.065-.264-.065-.265-.065-.265-.063-.265-.063-.266-.061-.265-.062-.267-.06-.266-.059-.267-.059-.267-.057-.268-.057-.267-.057-.268-.055-.269-.054-.268-.054-.269-.053-.269-.052-.27-.051-.27-.051-.27-.05-.27-.048-.271-.048-.271-.047-.271-.047-.272-.045-.272-.045-.272-.044-.272-.043-.273-.042-.273-.041-.273-.041-.274-.039-.274-.039-.274-.038-.274-.037-.275-.037-.275-.035-.275-.035-.276-.033-.276-.033-.276-.032-.276-.031-.277-.031-.277-.029-.277-.029-.277-.028-.278-.027-.278-.026-.278-.025-.278-.024-.279-.024-.279-.022-.279-.022-.28-.021-.28-.02-.28-.019-.28-.018-.28-.017-.281-.017-.281-.015-.282-.015-.281-.014-.282-.013-.282-.012-.282-.011-.283-.011-.283-.009-.283-.009-.283-.007-.284-.007-.283-.006-.284-.005-.285-.004-.284-.003-.285-.002-.285-.002h-.57z" fill="#acada1"/></g><circle cx="300" cy="155" r="10" fill="#fff" transform="matrix(2.5 0 0 2.5 -450 -232.5)"/></svg>