<svg viewBox="0 0 160 202" xmlns="http://www.w3.org/2000/svg" fill-rule="evenodd" clip-rule="evenodd" stroke-linejoin="round" stroke-miterlimit="1.414"><g fill="#b3d107" fill-rule="nonzero"><path d="M152.841.437c1.639 0 2.976.411 4.017 1.23 1.036.819 1.746 1.913 2.13 3.279.382 1.366.435 2.924.164 4.672-.274 1.75-.901 3.498-1.885 5.245-.22.219-.492.219-.82 0-.327-.219-.547-.491-.655-.819.218-1.312-.245-2.404-1.394-3.279-1.147-.873-2.925-1.312-5.327-1.312-4.482 0-8.989 1.667-13.523 5-4.536 3.335-8.935 7.735-13.196 13.196-4.262 5.466-8.252 11.75-11.966 18.852a178.363 178.363 0 0 0-9.672 21.965c-2.732 7.54-4.892 15.026-6.475 22.457-1.584 7.433-2.375 14.207-2.375 20.328 0 3.276.927 4.917 2.787 4.917 1.311 0 2.594-.547 3.851-1.641 1.255-1.091 2.706-2.729 4.345-4.917.327-.216.627-.189.9.083.272.275.354.629.247 1.064-2.188 3.279-4.754 6.011-7.705 8.196-2.95 2.188-5.63 3.279-8.032 3.279-2.077 0-3.524-.601-4.343-1.804-.819-1.201-1.23-2.729-1.23-4.589 0-5.136 1.091-11.558 3.279-19.26 2.185-7.705 5.106-15.845 8.77-24.425 3.661-8.578 7.895-17.129 12.704-25.653 4.808-8.524 9.808-16.2 15-23.03 5.189-6.83 10.409-12.377 15.654-16.64 5.242-4.263 10.159-6.394 14.75-6.394zM7.299 201.864c-1.64 0-2.977-.41-4.017-1.229-1.037-.819-1.747-1.913-2.131-3.279-.381-1.368-.435-2.924-.164-4.672.275-1.75.902-3.497 1.885-5.245.22-.221.492-.221.82 0 .327.217.547.491.655.819-.217 1.312.246 2.404 1.394 3.279 1.147.872 2.924 1.31 5.327 1.31 4.482 0 8.99-1.667 13.524-5 4.535-3.332 8.934-7.731 13.196-13.193 4.262-5.466 8.252-11.749 11.966-18.852a178.304 178.304 0 0 0 9.671-21.966c2.732-7.54 4.892-15.026 6.476-22.457 1.584-7.433 2.375-14.207 2.375-20.327 0-3.279-.927-4.917-2.787-4.917-1.312 0-2.595.544-3.851 1.638-1.255 1.091-2.706 2.732-4.345 4.919-.327.216-.627.189-.9-.083-.272-.275-.354-.63-.247-1.067 2.188-3.276 4.754-6.011 7.705-8.196 2.95-2.185 5.629-3.276 8.032-3.276 2.077 0 3.524.598 4.343 1.801.819 1.203 1.23 2.732 1.23 4.592 0 5.136-1.091 11.555-3.279 19.26-2.185 7.705-5.106 15.845-8.77 24.425-3.661 8.578-7.895 17.129-12.704 25.653-4.808 8.524-9.808 16.2-14.999 23.03-5.189 6.83-10.409 12.377-15.655 16.638-5.243 4.263-10.16 6.395-14.75 6.395z"/></g></svg>