<svg xmlns="http://www.w3.org/2000/svg" width="2268.762" height="2268.762" viewBox="0 0 2126.964 2126.964"><g stroke="red" stroke-width="3.686" stroke-miterlimit="10"><path d="M2125.121 1063.482c0-69.482-6.841-138.968-20.4-207.115a1062.29 1062.29 0 0 0-60.413-199.157 1062.301 1062.301 0 0 0-98.106-183.542 1062.611 1062.611 0 0 0-132.027-160.879 1062.611 1062.611 0 0 0-160.879-132.027 1062.301 1062.301 0 0 0-183.542-98.105 1062.29 1062.29 0 0 0-199.156-60.414 1062.314 1062.314 0 0 0-207.116-20.4c-69.482 0-138.968 6.842-207.115 20.4A1062.29 1062.29 0 0 0 657.21 82.657a1062.3 1062.3 0 0 0-183.542 98.105A1062.611 1062.611 0 0 0 312.789 312.79a1062.613 1062.613 0 0 0-132.026 160.879A1062.299 1062.299 0 0 0 82.657 657.21a1062.293 1062.293 0 0 0-60.414 199.157 1062.315 1062.315 0 0 0-20.4 207.115c0 69.482 6.842 138.968 20.4 207.116a1062.293 1062.293 0 0 0 60.414 199.156 1062.297 1062.297 0 0 0 98.106 183.542 1062.611 1062.611 0 0 0 132.026 160.88 1062.613 1062.613 0 0 0 160.879 132.026 1062.298 1062.298 0 0 0 183.542 98.106 1062.294 1062.294 0 0 0 199.157 60.413 1062.314 1062.314 0 0 0 207.115 20.4c69.482 0 138.968-6.842 207.116-20.4a1062.294 1062.294 0 0 0 199.156-60.413 1062.299 1062.299 0 0 0 183.542-98.106 1062.613 1062.613 0 0 0 160.88-132.027 1062.61 1062.61 0 0 0 132.026-160.879 1062.3 1062.3 0 0 0 98.106-183.542 1062.29 1062.29 0 0 0 60.413-199.156 1062.313 1062.313 0 0 0 20.4-207.116z" fill="#dd4814"/><path d="M514.545 1063.482c0-36.376-15.07-72.752-40.789-98.474-25.722-25.723-62.102-40.792-98.478-40.792s-72.751 15.07-98.474 40.792-40.788 62.098-40.788 98.474c0 36.376 15.065 72.752 40.788 98.475 25.723 25.722 62.098 40.792 98.474 40.792 36.376 0 72.756-15.07 98.478-40.792 25.72-25.723 40.789-62.099 40.789-98.475zM1337.949 1538.875c-31.503 18.188-55.47 49.425-64.885 84.563-9.415 35.137-4.276 74.174 13.912 105.677 18.188 31.503 49.425 55.474 84.562 64.89 35.137 9.414 74.175 4.275 105.677-13.913 31.503-18.192 55.475-49.429 64.89-84.566 9.414-35.134 4.275-74.171-13.912-105.674-18.192-31.506-49.43-55.474-84.567-64.889-35.137-9.414-74.17-4.276-105.677 13.912zM1337.949 588.089c31.506 18.188 70.54 23.327 105.677 13.912 35.138-9.415 66.375-33.383 84.567-64.89 18.187-31.502 23.326-70.54 13.911-105.673-9.414-35.137-33.386-66.374-64.889-84.566-31.502-18.188-70.54-23.326-105.677-13.912-35.137 9.415-66.374 33.387-84.562 64.89-18.188 31.502-23.327 70.54-13.912 105.677 9.414 35.137 33.382 66.374 64.885 84.562z" fill="#fff"/><path d="M1526.471 1486.825c-2.396 2.618-5.22 4.84-8.478 6.665-6.514 3.646-13.474 4.995-20.876 4.044-3.7-.48-7.155-1.482-10.354-3.019-26.438-12.692-56.488-18.984-86.14-17.886-29.656 1.099-58.914 9.592-84.533 24.385-25.62 14.789-47.605 35.882-63.382 61.015-15.777 25.129-25.35 54.302-27.58 83.541-.273 3.539-1.125 7.033-2.566 10.476-2.875 6.886-7.523 12.242-13.938 16.058-3.207 1.91-6.546 3.243-10.011 4.01-34.861 7.69-70.386 12.356-106.573 14.008-72.38 3.295-143.2-5.673-212.468-26.917-34.633-10.62-67.872-24.001-99.717-40.14l109.024-188.831c58.977 27.776 125.805 41.385 191.7 38.702 65.899-2.688 130.862-21.672 187.807-54.55 56.945-32.877 105.869-79.644 141.143-135.37 35.277-55.724 56.9-120.407 62.334-185.37h218.045c-1.942 35.646-6.974 71.123-15.095 106.426-16.238 70.61-43.877 136.428-82.922 197.461-19.522 30.515-41.33 58.943-65.42 85.292zM1198.613 450.85c3.465.767 6.804 2.101 10.011 4.01 6.415 3.816 11.063 9.172 13.938 16.058 1.441 3.443 2.293 6.938 2.566 10.476 2.23 29.24 11.803 58.413 27.58 83.542 15.777 25.133 37.762 46.225 63.382 61.018 25.623 14.79 54.88 23.282 84.533 24.381 29.652 1.098 59.702-5.194 86.14-17.886 3.2-1.537 6.653-2.54 10.354-3.019 7.402-.95 14.362.398 20.876 4.044 3.258 1.825 6.082 4.048 8.478 6.665 24.09 26.35 45.898 54.777 65.42 85.292 39.04 61.033 66.684 126.851 82.922 197.461 8.12 35.304 13.153 70.78 15.095 106.426h-218.045c-5.434-64.963-27.06-129.645-62.334-185.37-35.274-55.725-84.198-102.493-141.143-135.37-56.945-32.878-121.912-51.862-187.807-54.55-65.895-2.683-132.723 10.927-191.7 38.703L779.855 503.899c31.845-16.139 65.08-29.52 99.717-40.14 69.268-21.244 140.088-30.212 212.464-26.917 36.191 1.648 71.716 6.319 106.577 14.008zM465.363 1252.77c-1.073-3.383-1.582-6.94-1.534-10.674.1-7.465 2.411-14.163 6.938-20.102 2.263-2.967 4.858-5.452 7.789-7.457 24.211-16.551 44.685-39.428 58.56-65.656 13.875-26.23 21.151-55.817 21.151-85.399 0-29.586-7.276-59.168-21.151-85.4-13.875-26.227-34.349-49.104-58.56-65.655-2.93-2.005-5.526-4.49-7.79-7.457-4.526-5.939-6.837-12.637-6.937-20.101-.048-3.734.461-7.292 1.534-10.676 10.771-34.035 24.491-67.137 41.157-99.3 33.33-64.328 76.512-121.178 129.542-170.544 26.515-24.683 54.722-46.778 84.618-66.286l109.024 188.832c-53.543 37.187-98.743 88.256-129.365 146.668-30.625 58.412-46.664 124.164-46.664 189.92 0 65.754 16.039 131.506 46.664 189.918 30.622 58.413 75.822 109.482 129.365 146.669L720.68 1588.9c-29.896-19.507-58.103-41.603-84.618-66.286-53.03-49.366-96.211-106.215-129.542-170.544-16.666-32.162-30.386-65.265-41.157-99.3z" fill="#fff"/></g></svg>