<?xml version="1.0" encoding="UTF-8" standalone="no"?><!DOCTYPE svg PUBLIC "-//W3C//DTD SVG 1.1//EN" "http://www.w3.org/Graphics/SVG/1.1/DTD/svg11.dtd"><svg width="100%" height="100%" viewBox="0 0 325 366" version="1.1" xmlns="http://www.w3.org/2000/svg" xmlns:xlink="http://www.w3.org/1999/xlink" xml:space="preserve" xmlns:serif="http://www.serif.com/" style="fill-rule:evenodd;clip-rule:evenodd;stroke-linejoin:round;stroke-miterlimit:1.41421;"><g><path d="M324.741,107.31c-0.003,-6.137 -1.315,-11.56 -3.97,-16.214c-2.607,-4.577 -6.512,-8.413 -11.749,-11.446c-43.235,-24.929 -86.511,-49.782 -129.731,-74.737c-11.652,-6.727 -22.949,-6.481 -34.515,0.342c-17.208,10.149 -103.366,59.51 -129.039,74.381c-10.574,6.12 -15.718,15.488 -15.721,27.663c-0.016,50.133 0,100.266 -0.016,150.402c0.002,6.002 1.259,11.32 3.796,15.904c2.609,4.715 6.568,8.657 11.927,11.759c25.675,14.87 111.843,64.228 129.048,74.379c11.571,6.827 22.868,7.071 34.524,0.342c43.221,-24.956 86.5,-49.808 129.741,-74.736c5.358,-3.101 9.317,-7.045 11.926,-11.757c2.534,-4.584 3.793,-9.902 3.795,-15.906c0,0 0,-100.241 -0.016,-150.376Z" style="fill:#9b4993;fill-rule:nonzero;"/><path d="M162.875,182.011l-159.079,91.594c2.609,4.715 6.568,8.657 11.927,11.759c25.675,14.87 111.843,64.228 129.048,74.379c11.571,6.827 22.868,7.071 34.524,0.342c43.221,-24.956 86.5,-49.808 129.741,-74.736c5.358,-3.101 9.317,-7.045 11.926,-11.757l-158.087,-91.581Z" style="fill:#692876;fill-rule:nonzero;"/><path d="M115.758,209.142c9.257,16.16 26.659,27.06 46.621,27.06c20.085,0 37.586,-11.038 46.795,-27.371l-46.299,-26.82l-47.117,27.131Z" style="fill:#692876;fill-rule:nonzero;"/><path d="M324.741,107.31c-0.003,-6.137 -1.315,-11.56 -3.97,-16.214l-157.896,90.915l158.087,91.581c2.534,-4.584 3.793,-9.902 3.795,-15.906c0,0 0,-100.241 -0.016,-150.376Z" style="fill:#822f85;fill-rule:nonzero;"/><path d="M209.174,208.831c-9.209,16.333 -26.71,27.371 -46.795,27.371c-19.962,0 -37.364,-10.9 -46.621,-27.06c-4.497,-7.853 -7.082,-16.944 -7.082,-26.643c0,-29.659 24.044,-53.702 53.703,-53.702c19.833,0 37.144,10.764 46.446,26.759l46.939,-27.03c-18.657,-32.205 -53.489,-53.873 -93.385,-53.873c-59.564,0 -107.848,48.285 -107.848,107.846c0,19.54 5.198,37.864 14.284,53.67c18.61,32.376 53.542,54.177 93.564,54.177c40.095,0 75.082,-21.888 93.665,-54.36l-46.87,-27.155Z" style="fill:#fff;fill-rule:nonzero;"/><rect x="257.82" y="157" width="10.667" height="51.666" style="fill:#fff;fill-rule:nonzero;"/><rect x="281.487" y="157" width="10.666" height="51.666" style="fill:#fff;fill-rule:nonzero;"/><rect x="249.153" y="165.666" width="51.667" height="10.667" style="fill:#fff;fill-rule:nonzero;"/><rect x="249.153" y="189.333" width="51.667" height="10.667" style="fill:#fff;fill-rule:nonzero;"/></g></svg>