<?xml version="1.0" encoding="UTF-8" standalone="no"?>
<!DOCTYPE svg PUBLIC "-//W3C//DTD SVG 1.1//EN" "http://www.w3.org/Graphics/SVG/1.1/DTD/svg11.dtd">
<svg width="100%" height="100%" viewBox="0 0 600 600" version="1.1" xmlns="http://www.w3.org/2000/svg" xmlns:xlink="http://www.w3.org/1999/xlink" xml:space="preserve" xmlns:serif="http://www.serif.com/" style="fill-rule:evenodd;clip-rule:evenodd;stroke-linecap:round;stroke-linejoin:round;stroke-miterlimit:1.5;">
    <path d="M75,120C75,120 69.887,235.036 66.973,300.599C65.658,330.185 65.658,359.815 66.973,389.401C69.887,454.964 75,570 75,570C75,570 190.036,575.113 255.599,578.027C285.185,579.342 314.815,579.342 344.401,578.027C409.964,575.113 525,570 525,570C525,570 530.113,454.964 533.027,389.401C534.342,359.815 534.342,330.185 533.027,300.599C530.113,235.036 525,120 525,120C525,120 409.964,114.887 344.401,111.973C314.815,110.658 285.185,110.658 255.599,111.973C190.036,114.887 75,120 75,120L75,120Z" style="fill:rgb(50,50,50);stroke:rgb(34,36,30);stroke-width:5px;"/>
    <g transform="matrix(1.25,0,0,1.25,-131.25,-7.5)">
        <circle cx="345" cy="130" r="100" style="fill:rgb(225,226,224);"/>
        <clipPath id="_clip1">
            <circle cx="345" cy="130" r="100"/>
        </clipPath>
        <g clip-path="url(#_clip1)">
            <g transform="matrix(-0.8,-9.79717e-17,8.52354e-17,-0.696,590.6,325.88)">
                <path d="M307,155L314,255L300,255L307,155Z" style="fill:rgb(174,75,75);"/>
            </g>
        </g>
        <path d="M345.323,30.001L345.646,30.002L345.969,30.005L346.292,30.008L346.614,30.013L346.936,30.018L347.258,30.025L347.579,30.033L347.901,30.041L348.222,30.051L348.543,30.062L348.863,30.073L349.183,30.086L349.503,30.1L349.823,30.115L350.143,30.13L350.462,30.147L350.781,30.165L351.1,30.183L351.418,30.203L351.736,30.224L352.054,30.245L352.372,30.268L352.689,30.292L353.006,30.316L353.323,30.342L353.64,30.369L353.956,30.396L354.272,30.425L354.588,30.455L354.903,30.485L355.218,30.517L355.533,30.549L355.848,30.583L356.162,30.617L356.476,30.653L356.79,30.689L357.103,30.726L357.416,30.765L357.729,30.804L358.041,30.844L358.354,30.886L358.666,30.928L358.977,30.971L359.288,31.015L359.599,31.06L359.91,31.106L360.22,31.153L360.531,31.201L360.84,31.25L361.15,31.3L361.459,31.351L361.768,31.402L362.076,31.455L362.384,31.509L362.692,31.563L363,31.619L363.307,31.675L363.614,31.732L363.92,31.791L364.226,31.85L364.532,31.91L364.838,31.971L365.143,32.033L365.448,32.096L365.752,32.16L366.056,32.225L366.36,32.291L366.664,32.357L366.967,32.425L367.27,32.493L367.572,32.563L367.874,32.633L368.176,32.704L368.477,32.776L368.779,32.849L369.079,32.923L369.38,32.998L369.68,33.074L369.979,33.151L370.278,33.228L370.577,33.307L370.876,33.386L371.174,33.466L371.472,33.547L371.769,33.629L372.066,33.712L372.363,33.796L372.659,33.881L372.955,33.967L373.251,34.053L373.546,34.141L373.841,34.229L374.135,34.318L374.43,34.408L374.723,34.499L375.017,34.591L375.309,34.683L375.602,34.777L375.894,34.871L376.186,34.967L376.477,35.063L376.768,35.16L377.059,35.258L377.349,35.357L377.639,35.456L377.928,35.557L378.217,35.658L378.505,35.76L378.793,35.863L379.081,35.967L379.369,36.072L379.655,36.178L379.942,36.284L380.228,36.392L380.514,36.5L380.799,36.609L381.084,36.719L381.368,36.829L381.652,36.941L381.936,37.053L382.219,37.167L382.502,37.281L382.784,37.396L383.066,37.511L383.347,37.628L383.628,37.745L383.909,37.864L384.189,37.983L384.469,38.103L384.748,38.223L385.027,38.345L385.305,38.467L385.583,38.591L385.861,38.715L386.138,38.839L386.414,38.965L386.691,39.092L386.966,39.219L387.242,39.347L387.516,39.476L387.791,39.606L388.065,39.736L388.338,39.867L388.611,40L388.884,40.132L389.156,40.266L389.427,40.401L389.698,40.536L389.969,40.672L390.239,40.809L390.509,40.947L390.778,41.085L391.047,41.225L391.315,41.365L391.583,41.506L391.85,41.647L392.117,41.79L392.384,41.933L392.65,42.077L392.915,42.222L393.18,42.367L393.444,42.514L393.708,42.661L393.972,42.809L394.235,42.957L394.497,43.107L394.759,43.257L395.021,43.408L395.282,43.56L395.542,43.712L395.802,43.865L396.062,44.019L396.321,44.174L396.579,44.33L396.837,44.486L397.095,44.643L397.352,44.801L397.608,44.959L397.864,45.119L398.119,45.279L398.374,45.439L398.629,45.601L398.883,45.763L399.136,45.926L399.389,46.09L399.641,46.255L399.893,46.42L400.144,46.586L400.395,46.753L400.645,46.92L400.895,47.088L401.144,47.257L401.392,47.427L401.64,47.597L401.888,47.768L402.135,47.94L402.381,48.113L402.627,48.286L402.873,48.46L403.117,48.634L403.362,48.81L403.605,48.986L403.849,49.163L404.091,49.34L404.333,49.519L404.575,49.698L404.816,49.877L405.056,50.058L405.296,50.239L405.535,50.421L405.774,50.603L406.012,50.786L406.25,50.97L406.487,51.155L406.723,51.34L406.959,51.526L407.194,51.713L407.429,51.9L407.663,52.088L407.897,52.277L408.13,52.466L408.362,52.656L408.594,52.847L408.825,53.039L409.056,53.231L409.286,53.424L409.515,53.617L409.744,53.811L409.973,54.006L410.2,54.202L410.428,54.398L410.654,54.595L410.88,54.792L411.105,54.99L411.33,55.189L411.554,55.389L411.778,55.589L412.001,55.79L412.223,55.991L412.445,56.193L412.666,56.396L412.886,56.6L413.106,56.804L413.326,57.008L413.544,57.214L413.762,57.42L413.98,57.627L414.197,57.834L414.413,58.042L414.628,58.251L414.843,58.46L415.058,58.67L415.271,58.88L415.484,59.091L415.697,59.303L415.909,59.516L416.12,59.729L416.33,59.942L416.54,60.157L416.749,60.372L416.958,60.587L417.166,60.803L417.373,61.02L417.58,61.238L417.786,61.456L417.992,61.674L418.196,61.894L418.4,62.114L418.604,62.334L418.807,62.555L419.009,62.777L419.21,62.999L419.411,63.222L419.611,63.446L419.811,63.67L420.01,63.895L420.208,64.12L420.405,64.346L420.602,64.572L420.798,64.8L420.994,65.027L421.189,65.256L421.383,65.485L421.576,65.714L421.769,65.944L421.961,66.175L422.153,66.406L422.344,66.638L422.534,66.87L422.723,67.103L422.912,67.337L423.1,67.571L423.287,67.806L423.474,68.041L423.66,68.277L423.845,68.513L424.03,68.75L424.214,68.988L424.397,69.226L424.579,69.465L424.761,69.704L424.942,69.944L425.123,70.184L425.302,70.425L425.481,70.667L425.66,70.909L425.837,71.151L426.014,71.395L426.19,71.638L426.366,71.883L426.54,72.127L426.714,72.373L426.887,72.619L427.06,72.865L427.232,73.112L427.403,73.36L427.573,73.608L427.743,73.856L427.912,74.105L428.08,74.355L428.247,74.605L428.414,74.856L428.58,75.107L428.745,75.359L428.91,75.611L429.074,75.864L429.237,76.117L429.399,76.371L429.561,76.626L429.721,76.881L429.881,77.136L430.041,77.392L430.199,77.648L430.357,77.905L430.514,78.163L430.67,78.421L430.826,78.679L430.981,78.938L431.135,79.198L431.288,79.458L431.44,79.718L431.592,79.979L431.743,80.241L431.893,80.503L432.043,80.765L432.191,81.028L432.339,81.292L432.486,81.556L432.633,81.82L432.778,82.085L432.923,82.35L433.067,82.616L433.21,82.883L433.353,83.15L433.494,83.417L433.635,83.685L433.775,83.953L433.915,84.222L434.053,84.491L434.191,84.761L434.328,85.031L434.464,85.302L434.599,85.573L434.734,85.844L434.868,86.116L435,86.389L435.133,86.662L435.264,86.935L435.394,87.209L435.524,87.484L435.653,87.758L435.781,88.034L435.908,88.309L436.035,88.586L436.161,88.862L436.285,89.139L436.409,89.417L436.533,89.695L436.655,89.973L436.777,90.252L436.897,90.531L437.017,90.811L437.136,91.091L437.255,91.372L437.372,91.653L437.489,91.934L437.604,92.216L437.719,92.498L437.833,92.781L437.947,93.064L438.059,93.348L438.171,93.632L438.281,93.916L438.391,94.201L438.5,94.486L438.608,94.772L438.716,95.058L438.822,95.345L438.928,95.631L439.033,95.919L439.137,96.207L439.24,96.495L439.342,96.783L439.443,97.072L439.544,97.361L439.643,97.651L439.742,97.941L439.84,98.232L439.937,98.523L440.033,98.814L440.129,99.106L440.223,99.398L440.317,99.691L440.409,99.983L440.501,100.277L440.592,100.57L440.682,100.865L440.771,101.159L440.859,101.454L440.947,101.749L441.033,102.045L441.119,102.341L441.204,102.637L441.288,102.934L441.371,103.231L441.453,103.528L441.534,103.826L441.614,104.124L441.693,104.423L441.772,104.722L441.849,105.021L441.926,105.32L442.002,105.62L442.077,105.921L442.151,106.221L442.224,106.523L442.296,106.824L442.367,107.126L442.437,107.428L442.507,107.73L442.575,108.033L442.643,108.336L442.709,108.64L442.775,108.944L442.84,109.248L442.904,109.552L442.967,109.857L443.029,110.162L443.09,110.468L443.15,110.774L443.209,111.08L443.268,111.386L443.325,111.693L443.381,112L443.437,112.308L443.491,112.616L443.545,112.924L443.598,113.232L443.649,113.541L443.7,113.85L443.75,114.16L443.799,114.469L443.847,114.78L443.894,115.09L443.94,115.401L443.985,115.712L444.029,116.023L444.072,116.334L444.114,116.646L444.156,116.959L444.196,117.271L444.235,117.584L444.274,117.897L444.311,118.21L444.347,118.524L444.383,118.838L444.417,119.152L444.451,119.467L444.483,119.782L444.515,120.097L444.545,120.412L444.575,120.728L444.604,121.044L444.631,121.36L444.658,121.677L444.684,121.994L444.708,122.311L444.732,122.628L444.755,122.946L444.776,123.264L444.797,123.582L444.817,123.9L444.835,124.219L444.853,124.538L444.87,124.857L444.885,125.177L444.9,125.497L444.914,125.817L444.927,126.137L444.938,126.457L444.949,126.778L444.959,127.099L444.967,127.421L444.975,127.742L444.982,128.064L444.987,128.386L444.992,128.708L444.995,129.031L444.998,129.354L444.999,129.677L445,130L444.999,130.323L444.998,130.646L444.995,130.969L444.992,131.292L444.987,131.614L444.982,131.936L444.975,132.258L444.967,132.579L444.959,132.901L444.949,133.222L444.938,133.543L444.927,133.863L444.914,134.183L444.9,134.503L444.885,134.823L444.87,135.143L444.853,135.462L444.835,135.781L444.817,136.1L444.797,136.418L444.776,136.736L444.755,137.054L444.732,137.372L444.708,137.689L444.684,138.006L444.658,138.323L444.631,138.64L444.604,138.956L444.575,139.272L444.545,139.588L444.515,139.903L444.483,140.218L444.451,140.533L444.417,140.848L444.383,141.162L444.347,141.476L444.311,141.79L444.274,142.103L444.235,142.416L444.196,142.729L444.156,143.041L444.114,143.354L444.072,143.666L444.029,143.977L443.985,144.288L443.94,144.599L443.894,144.91L443.847,145.22L443.799,145.531L443.75,145.84L443.7,146.15L443.649,146.459L443.598,146.768L443.545,147.076L443.491,147.384L443.437,147.692L443.381,148L443.325,148.307L443.268,148.614L443.209,148.92L443.15,149.226L443.09,149.532L443.029,149.838L442.967,150.143L442.904,150.448L442.84,150.752L442.775,151.056L442.709,151.36L442.643,151.664L442.575,151.967L442.507,152.27L442.437,152.572L442.367,152.874L442.296,153.176L442.224,153.477L442.151,153.779L442.077,154.079L442.002,154.38L441.926,154.68L441.849,154.979L441.772,155.278L441.693,155.577L441.614,155.876L441.534,156.174L441.453,156.472L441.371,156.769L441.288,157.066L441.204,157.363L441.119,157.659L441.033,157.955L440.947,158.251L440.859,158.546L440.771,158.841L440.682,159.135L440.592,159.43L440.501,159.723L440.409,160.017L440.317,160.309L440.223,160.602L440.129,160.894L440.033,161.186L439.937,161.477L439.84,161.768L439.742,162.059L439.643,162.349L439.544,162.639L439.443,162.928L439.342,163.217L439.24,163.505L439.137,163.793L439.033,164.081L438.928,164.369L438.822,164.655L438.716,164.942L438.608,165.228L438.5,165.514L438.391,165.799L438.281,166.084L438.171,166.368L438.059,166.652L437.947,166.936L437.833,167.219L437.719,167.502L437.604,167.784L437.489,168.066L437.372,168.347L437.255,168.628L437.136,168.909L437.017,169.189L436.897,169.469L436.777,169.748L436.655,170.027L436.533,170.305L436.409,170.583L436.285,170.861L436.161,171.138L436.035,171.414L435.908,171.691L435.781,171.966L435.653,172.242L435.524,172.516L435.394,172.791L435.264,173.065L435.133,173.338L435,173.611L434.868,173.884L434.734,174.156L434.599,174.427L434.464,174.698L434.328,174.969L434.191,175.239L434.053,175.509L433.915,175.778L433.775,176.047L433.635,176.315L433.494,176.583L433.353,176.85L433.21,177.117L433.067,177.384L432.923,177.65L432.778,177.915L432.633,178.18L432.486,178.444L432.339,178.708L432.191,178.972L432.043,179.235L431.893,179.497L431.743,179.759L431.592,180.021L431.44,180.282L431.288,180.542L431.135,180.802L430.981,181.062L430.826,181.321L430.67,181.579L430.514,181.837L430.357,182.095L430.199,182.352L430.041,182.608L429.881,182.864L429.721,183.119L429.561,183.374L429.399,183.629L429.237,183.883L429.074,184.136L428.91,184.389L428.745,184.641L428.58,184.893L428.414,185.144L428.247,185.395L428.08,185.645L427.912,185.895L427.743,186.144L427.573,186.392L427.403,186.64L427.232,186.888L427.06,187.135L426.887,187.381L426.714,187.627L426.54,187.873L426.366,188.117L426.19,188.362L426.014,188.605L425.837,188.849L425.66,189.091L425.481,189.333L425.302,189.575L425.123,189.816L424.942,190.056L424.761,190.296L424.579,190.535L424.397,190.774L424.214,191.012L424.03,191.25L423.845,191.487L423.66,191.723L423.474,191.959L423.287,192.194L423.1,192.429L422.912,192.663L422.723,192.897L422.534,193.13L422.344,193.362L422.153,193.594L421.961,193.825L421.769,194.056L421.576,194.286L421.383,194.515L421.189,194.744L420.994,194.973L420.798,195.2L420.602,195.428L420.405,195.654L420.208,195.88L420.01,196.105L419.811,196.33L419.611,196.554L419.411,196.778L419.21,197.001L419.009,197.223L418.807,197.445L418.604,197.666L418.4,197.886L418.196,198.106L417.992,198.326L417.786,198.544L417.58,198.762L417.373,198.98L417.166,199.197L416.958,199.413L416.749,199.628L416.54,199.843L416.33,200.058L416.12,200.271L415.909,200.484L415.697,200.697L415.484,200.909L415.271,201.12L415.058,201.33L414.843,201.54L414.628,201.749L414.413,201.958L414.197,202.166L413.98,202.373L413.762,202.58L413.544,202.786L413.326,202.992L413.106,203.196L412.886,203.4L412.666,203.604L412.445,203.807L412.223,204.009L412.001,204.21L411.778,204.411L411.554,204.611L411.33,204.811L411.105,205.01L410.88,205.208L410.654,205.405L410.428,205.602L410.2,205.798L409.973,205.994L409.744,206.189L409.515,206.383L409.286,206.576L409.056,206.769L408.825,206.961L408.594,207.153L408.362,207.344L408.13,207.534L407.897,207.723L407.663,207.912L407.429,208.1L407.194,208.287L406.959,208.474L406.723,208.66L406.487,208.845L406.25,209.03L406.012,209.214L405.774,209.397L405.535,209.579L405.296,209.761L405.056,209.942L404.816,210.123L404.575,210.302L404.333,210.481L404.091,210.66L403.849,210.837L403.605,211.014L403.362,211.19L403.117,211.366L402.873,211.54L402.627,211.714L402.381,211.887L402.135,212.06L401.888,212.232L401.64,212.403L401.392,212.573L401.144,212.743L400.895,212.912L400.645,213.08L400.395,213.247L400.144,213.414L399.893,213.58L399.641,213.745L399.389,213.91L399.136,214.074L398.883,214.237L398.629,214.399L398.374,214.561L398.119,214.721L397.864,214.881L397.608,215.041L397.352,215.199L397.095,215.357L396.837,215.514L396.579,215.67L396.321,215.826L396.062,215.981L395.802,216.135L395.542,216.288L395.282,216.44L395.021,216.592L394.759,216.743L394.497,216.893L394.235,217.043L393.972,217.191L393.708,217.339L393.444,217.486L393.18,217.633L392.915,217.778L392.65,217.923L392.384,218.067L392.117,218.21L391.85,218.353L391.583,218.494L391.315,218.635L391.047,218.775L390.778,218.915L390.509,219.053L390.239,219.191L389.969,219.328L389.698,219.464L389.427,219.599L389.156,219.734L388.884,219.868L388.611,220L388.338,220.133L388.065,220.264L387.791,220.394L387.516,220.524L387.242,220.653L386.966,220.781L386.691,220.908L386.414,221.035L386.138,221.161L385.861,221.285L385.583,221.409L385.305,221.533L385.027,221.655L384.748,221.777L384.469,221.897L384.189,222.017L383.909,222.136L383.628,222.255L383.347,222.372L383.066,222.489L382.784,222.604L382.502,222.719L382.219,222.833L381.936,222.947L381.652,223.059L381.368,223.171L381.084,223.281L380.799,223.391L380.514,223.5L380.228,223.608L379.942,223.716L379.655,223.822L379.369,223.928L379.081,224.033L378.793,224.137L378.505,224.24L378.217,224.342L377.928,224.443L377.639,224.544L377.349,224.643L377.059,224.742L376.768,224.84L376.477,224.937L376.186,225.033L375.894,225.129L375.602,225.223L375.309,225.317L375.017,225.409L374.723,225.501L374.43,225.592L374.135,225.682L373.841,225.771L373.546,225.859L373.251,225.947L372.955,226.033L372.659,226.119L372.363,226.204L372.066,226.288L371.769,226.371L371.472,226.453L371.174,226.534L370.876,226.614L370.577,226.693L370.278,226.772L369.979,226.849L369.68,226.926L369.38,227.002L369.079,227.077L368.779,227.151L368.477,227.224L368.176,227.296L367.874,227.367L367.572,227.437L367.27,227.507L366.967,227.575L366.664,227.643L366.36,227.709L366.056,227.775L365.752,227.84L365.448,227.904L365.143,227.967L364.838,228.029L364.532,228.09L364.226,228.15L363.92,228.209L363.614,228.268L363.307,228.325L363,228.381L362.692,228.437L362.384,228.491L362.076,228.545L361.768,228.598L361.459,228.649L361.15,228.7L360.84,228.75L360.531,228.799L360.22,228.847L359.91,228.894L359.599,228.94L359.288,228.985L358.977,229.029L358.666,229.072L358.354,229.114L358.041,229.156L357.729,229.196L357.416,229.235L357.103,229.274L356.79,229.311L356.476,229.347L356.162,229.383L355.848,229.417L355.533,229.451L355.218,229.483L354.903,229.515L354.588,229.545L354.272,229.575L353.956,229.604L353.64,229.631L353.323,229.658L353.006,229.684L352.689,229.708L352.372,229.732L352.054,229.755L351.736,229.776L351.418,229.797L351.1,229.817L350.781,229.835L350.462,229.853L350.143,229.87L349.823,229.885L349.503,229.9L349.183,229.914L348.863,229.927L348.543,229.938L348.222,229.949L347.901,229.959L347.579,229.967L347.258,229.975L346.936,229.982L346.614,229.987L346.292,229.992L345.969,229.995L345.646,229.998L345.323,229.999L345,230L344.677,229.999L344.354,229.998L344.031,229.995L343.708,229.992L343.386,229.987L343.064,229.982L342.742,229.975L342.421,229.967L342.099,229.959L341.778,229.949L341.457,229.938L341.137,229.927L340.817,229.914L340.497,229.9L340.177,229.885L339.857,229.87L339.538,229.853L339.219,229.835L338.9,229.817L338.582,229.797L338.264,229.776L337.946,229.755L337.628,229.732L337.311,229.708L336.994,229.684L336.677,229.658L336.36,229.631L336.044,229.604L335.728,229.575L335.412,229.545L335.097,229.515L334.782,229.483L334.467,229.451L334.152,229.417L333.838,229.383L333.524,229.347L333.21,229.311L332.897,229.274L332.584,229.235L332.271,229.196L331.959,229.156L331.646,229.114L331.334,229.072L331.023,229.029L330.712,228.985L330.401,228.94L330.09,228.894L329.78,228.847L329.469,228.799L329.16,228.75L328.85,228.7L328.541,228.649L328.232,228.598L327.924,228.545L327.616,228.491L327.308,228.437L327,228.381L326.693,228.325L326.386,228.268L326.08,228.209L325.774,228.15L325.468,228.09L325.162,228.029L324.857,227.967L324.552,227.904L324.248,227.84L323.944,227.775L323.64,227.709L323.336,227.643L323.033,227.575L322.73,227.507L322.428,227.437L322.126,227.367L321.824,227.296L321.523,227.224L321.221,227.151L320.921,227.077L320.62,227.002L320.32,226.926L320.021,226.849L319.722,226.772L319.423,226.693L319.124,226.614L318.826,226.534L318.528,226.453L318.231,226.371L317.934,226.288L317.637,226.204L317.341,226.119L317.045,226.033L316.749,225.947L316.454,225.859L316.159,225.771L315.865,225.682L315.57,225.592L315.277,225.501L314.983,225.409L314.691,225.317L314.398,225.223L314.106,225.129L313.814,225.033L313.523,224.937L313.232,224.84L312.941,224.742L312.651,224.643L312.361,224.544L312.072,224.443L311.783,224.342L311.495,224.24L311.207,224.137L310.919,224.033L310.631,223.928L310.345,223.822L310.058,223.716L309.772,223.608L309.486,223.5L309.201,223.391L308.916,223.281L308.632,223.171L308.348,223.059L308.064,222.947L307.781,222.833L307.498,222.719L307.216,222.604L306.934,222.489L306.653,222.372L306.372,222.255L306.091,222.136L305.811,222.017L305.531,221.897L305.252,221.777L304.973,221.655L304.695,221.533L304.417,221.409L304.139,221.285L303.862,221.161L303.586,221.035L303.309,220.908L303.034,220.781L302.758,220.653L302.484,220.524L302.209,220.394L301.935,220.264L301.662,220.133L301.389,220L301.116,219.868L300.844,219.734L300.573,219.599L300.302,219.464L300.031,219.328L299.761,219.191L299.491,219.053L299.222,218.915L298.953,218.775L298.685,218.635L298.417,218.494L298.15,218.353L297.883,218.21L297.616,218.067L297.35,217.923L297.085,217.778L296.82,217.633L296.556,217.486L296.292,217.339L296.028,217.191L295.765,217.043L295.503,216.893L295.241,216.743L294.979,216.592L294.718,216.44L294.458,216.288L294.198,216.135L293.938,215.981L293.679,215.826L293.421,215.67L293.163,215.514L292.905,215.357L292.648,215.199L292.392,215.041L292.136,214.881L291.881,214.721L291.626,214.561L291.371,214.399L291.117,214.237L290.864,214.074L290.611,213.91L290.359,213.745L290.107,213.58L289.856,213.414L289.605,213.247L289.355,213.08L289.105,212.912L288.856,212.743L288.608,212.573L288.36,212.403L288.112,212.232L287.865,212.06L287.619,211.887L287.373,211.714L287.127,211.54L286.883,211.366L286.638,211.19L286.395,211.014L286.151,210.837L285.909,210.66L285.667,210.481L285.425,210.302L285.184,210.123L284.944,209.942L284.704,209.761L284.465,209.579L284.226,209.397L283.988,209.214L283.75,209.03L283.513,208.845L283.277,208.66L283.041,208.474L282.806,208.287L282.571,208.1L282.337,207.912L282.103,207.723L281.87,207.534L281.638,207.344L281.406,207.153L281.175,206.961L280.944,206.769L280.714,206.576L280.485,206.383L280.256,206.189L280.027,205.994L279.8,205.798L279.572,205.602L279.346,205.405L279.12,205.208L278.895,205.01L278.67,204.811L278.446,204.611L278.222,204.411L277.999,204.21L277.777,204.009L277.555,203.807L277.334,203.604L277.114,203.4L276.894,203.196L276.674,202.992L276.456,202.786L276.238,202.58L276.02,202.373L275.803,202.166L275.587,201.958L275.372,201.749L275.157,201.54L274.942,201.33L274.729,201.12L274.516,200.909L274.303,200.697L274.091,200.484L273.88,200.271L273.67,200.058L273.46,199.843L273.251,199.628L273.042,199.413L272.834,199.197L272.627,198.98L272.42,198.762L272.214,198.544L272.008,198.326L271.804,198.106L271.6,197.886L271.396,197.666L271.193,197.445L270.991,197.223L270.79,197.001L270.589,196.778L270.389,196.554L270.189,196.33L269.99,196.105L269.792,195.88L269.595,195.654L269.398,195.428L269.202,195.2L269.006,194.973L268.811,194.744L268.617,194.515L268.424,194.286L268.231,194.056L268.039,193.825L267.847,193.594L267.656,193.362L267.466,193.13L267.277,192.897L267.088,192.663L266.9,192.429L266.713,192.194L266.526,191.959L266.34,191.723L266.155,191.487L265.97,191.25L265.786,191.012L265.603,190.774L265.421,190.535L265.239,190.296L265.058,190.056L264.877,189.816L264.698,189.575L264.519,189.333L264.34,189.091L264.163,188.849L263.986,188.605L263.81,188.362L263.634,188.117L263.46,187.873L263.286,187.627L263.113,187.381L262.94,187.135L262.768,186.888L262.597,186.64L262.427,186.392L262.257,186.144L262.088,185.895L261.92,185.645L261.753,185.395L261.586,185.144L261.42,184.893L261.255,184.641L261.09,184.389L260.926,184.136L260.763,183.883L260.601,183.629L260.439,183.374L260.279,183.119L260.119,182.864L259.959,182.608L259.801,182.352L259.643,182.095L259.486,181.837L259.33,181.579L259.174,181.321L259.019,181.062L258.865,180.802L258.712,180.542L258.56,180.282L258.408,180.021L258.257,179.759L258.107,179.497L257.957,179.235L257.809,178.972L257.661,178.708L257.514,178.444L257.367,178.18L257.222,177.915L257.077,177.65L256.933,177.384L256.79,177.117L256.647,176.85L256.506,176.583L256.365,176.315L256.225,176.047L256.085,175.778L255.947,175.509L255.809,175.239L255.672,174.969L255.536,174.698L255.401,174.427L255.266,174.156L255.132,173.884L255,173.611L254.867,173.338L254.736,173.065L254.606,172.791L254.476,172.516L254.347,172.242L254.219,171.966L254.092,171.691L253.965,171.414L253.839,171.138L253.715,170.861L253.591,170.583L253.467,170.305L253.345,170.027L253.223,169.748L253.103,169.469L252.983,169.189L252.864,168.909L252.745,168.628L252.628,168.347L252.511,168.066L252.396,167.784L252.281,167.502L252.167,167.219L252.053,166.936L251.941,166.652L251.829,166.368L251.719,166.084L251.609,165.799L251.5,165.514L251.392,165.228L251.284,164.942L251.178,164.655L251.072,164.369L250.967,164.081L250.863,163.793L250.76,163.505L250.658,163.217L250.557,162.928L250.456,162.639L250.357,162.349L250.258,162.059L250.16,161.768L250.063,161.477L249.967,161.186L249.871,160.894L249.777,160.602L249.683,160.309L249.591,160.017L249.499,159.723L249.408,159.43L249.318,159.135L249.229,158.841L249.141,158.546L249.053,158.251L248.967,157.955L248.881,157.659L248.796,157.363L248.712,157.066L248.629,156.769L248.547,156.472L248.466,156.174L248.386,155.876L248.307,155.577L248.228,155.278L248.151,154.979L248.074,154.68L247.998,154.38L247.923,154.079L247.849,153.779L247.776,153.477L247.704,153.176L247.633,152.874L247.563,152.572L247.493,152.27L247.425,151.967L247.357,151.664L247.291,151.36L247.225,151.056L247.16,150.752L247.096,150.448L247.033,150.143L246.971,149.838L246.91,149.532L246.85,149.226L246.791,148.92L246.732,148.614L246.675,148.307L246.619,148L246.563,147.692L246.509,147.384L246.455,147.076L246.402,146.768L246.351,146.459L246.3,146.15L246.25,145.84L246.201,145.531L246.153,145.22L246.106,144.91L246.06,144.599L246.015,144.288L245.971,143.977L245.928,143.666L245.886,143.354L245.844,143.041L245.804,142.729L245.765,142.416L245.726,142.103L245.689,141.79L245.653,141.476L245.617,141.162L245.583,140.848L245.549,140.533L245.517,140.218L245.485,139.903L245.455,139.588L245.425,139.272L245.396,138.956L245.369,138.64L245.342,138.323L245.316,138.006L245.292,137.689L245.268,137.372L245.245,137.054L245.224,136.736L245.203,136.418L245.183,136.1L245.165,135.781L245.147,135.462L245.13,135.143L245.115,134.823L245.1,134.503L245.086,134.183L245.073,133.863L245.062,133.543L245.051,133.222L245.041,132.901L245.033,132.579L245.025,132.258L245.018,131.936L245.013,131.614L245.008,131.292L245.005,130.969L245.002,130.646L245.001,130.323L245,130L245.001,129.677L245.002,129.354L245.005,129.031L245.008,128.708L245.013,128.386L245.018,128.064L245.025,127.742L245.033,127.421L245.041,127.099L245.051,126.778L245.062,126.457L245.073,126.137L245.086,125.817L245.1,125.497L245.115,125.177L245.13,124.857L245.147,124.538L245.165,124.219L245.183,123.9L245.203,123.582L245.224,123.264L245.245,122.946L245.268,122.628L245.292,122.311L245.316,121.994L245.342,121.677L245.369,121.36L245.396,121.044L245.425,120.728L245.455,120.412L245.485,120.097L245.517,119.782L245.549,119.467L245.583,119.152L245.617,118.838L245.653,118.524L245.689,118.21L245.726,117.897L245.765,117.584L245.804,117.271L245.844,116.959L245.886,116.646L245.928,116.334L245.971,116.023L246.015,115.712L246.06,115.401L246.106,115.09L246.153,114.78L246.201,114.469L246.25,114.16L246.3,113.85L246.351,113.541L246.402,113.232L246.455,112.924L246.509,112.616L246.563,112.308L246.619,112L246.675,111.693L246.732,111.386L246.791,111.08L246.85,110.774L246.91,110.468L246.971,110.162L247.033,109.857L247.096,109.552L247.16,109.248L247.225,108.944L247.291,108.64L247.357,108.336L247.425,108.033L247.493,107.73L247.563,107.428L247.633,107.126L247.704,106.824L247.776,106.523L247.849,106.221L247.923,105.921L247.998,105.62L248.074,105.32L248.151,105.021L248.228,104.722L248.307,104.423L248.386,104.124L248.466,103.826L248.547,103.528L248.629,103.231L248.712,102.934L248.796,102.637L248.881,102.341L248.967,102.045L249.053,101.749L249.141,101.454L249.229,101.159L249.318,100.865L249.408,100.57L249.499,100.277L249.591,99.983L249.683,99.691L249.777,99.398L249.871,99.106L249.967,98.814L250.063,98.523L250.16,98.232L250.258,97.941L250.357,97.651L250.456,97.361L250.557,97.072L250.658,96.783L250.76,96.495L250.863,96.207L250.967,95.919L251.072,95.631L251.178,95.345L251.284,95.058L251.392,94.772L251.5,94.486L251.609,94.201L251.719,93.916L251.829,93.632L251.941,93.348L252.053,93.064L252.167,92.781L252.281,92.498L252.396,92.216L252.511,91.934L252.628,91.653L252.745,91.372L252.864,91.091L252.983,90.811L253.103,90.531L253.223,90.252L253.345,89.973L253.467,89.695L253.591,89.417L253.715,89.139L253.839,88.862L253.965,88.586L254.092,88.309L254.219,88.034L254.347,87.758L254.476,87.484L254.606,87.209L254.736,86.935L254.867,86.662L255,86.389L255.132,86.116L255.266,85.844L255.401,85.573L255.536,85.302L255.672,85.031L255.809,84.761L255.947,84.491L256.085,84.222L256.225,83.953L256.365,83.685L256.506,83.417L256.647,83.15L256.79,82.883L256.933,82.616L257.077,82.35L257.222,82.085L257.367,81.82L257.514,81.556L257.661,81.292L257.809,81.028L257.957,80.765L258.107,80.503L258.257,80.241L258.408,79.979L258.56,79.718L258.712,79.458L258.865,79.198L259.019,78.938L259.174,78.679L259.33,78.421L259.486,78.163L259.643,77.905L259.801,77.648L259.959,77.392L260.119,77.136L260.279,76.881L260.439,76.626L260.601,76.371L260.763,76.117L260.926,75.864L261.09,75.611L261.255,75.359L261.42,75.107L261.586,74.856L261.753,74.605L261.92,74.355L262.088,74.105L262.257,73.856L262.427,73.608L262.597,73.36L262.768,73.112L262.94,72.865L263.113,72.619L263.286,72.373L263.46,72.127L263.634,71.883L263.81,71.638L263.986,71.395L264.163,71.151L264.34,70.909L264.519,70.667L264.698,70.425L264.877,70.184L265.058,69.944L265.239,69.704L265.421,69.465L265.603,69.226L265.786,68.988L265.97,68.75L266.155,68.513L266.34,68.277L266.526,68.041L266.713,67.806L266.9,67.571L267.088,67.337L267.277,67.103L267.466,66.87L267.656,66.638L267.847,66.406L268.039,66.175L268.231,65.944L268.424,65.714L268.617,65.485L268.811,65.256L269.006,65.027L269.202,64.8L269.398,64.572L269.595,64.346L269.792,64.12L269.99,63.895L270.189,63.67L270.389,63.446L270.589,63.222L270.79,62.999L270.991,62.777L271.193,62.555L271.396,62.334L271.6,62.114L271.804,61.894L272.008,61.674L272.214,61.456L272.42,61.238L272.627,61.02L272.834,60.803L273.042,60.587L273.251,60.372L273.46,60.157L273.67,59.942L273.88,59.729L274.091,59.516L274.303,59.303L274.516,59.091L274.729,58.88L274.942,58.67L275.157,58.46L275.372,58.251L275.587,58.042L275.803,57.834L276.02,57.627L276.238,57.42L276.456,57.214L276.674,57.008L276.894,56.804L277.114,56.6L277.334,56.396L277.555,56.193L277.777,55.991L277.999,55.79L278.222,55.589L278.446,55.389L278.67,55.189L278.895,54.99L279.12,54.792L279.346,54.595L279.572,54.398L279.8,54.202L280.027,54.006L280.256,53.811L280.485,53.617L280.714,53.424L280.944,53.231L281.175,53.039L281.406,52.847L281.638,52.656L281.87,52.466L282.103,52.277L282.337,52.088L282.571,51.9L282.806,51.713L283.041,51.526L283.277,51.34L283.513,51.155L283.75,50.97L283.988,50.786L284.226,50.603L284.465,50.421L284.704,50.239L284.944,50.058L285.184,49.877L285.425,49.698L285.667,49.519L285.909,49.34L286.151,49.163L286.395,48.986L286.638,48.81L286.883,48.634L287.127,48.46L287.373,48.286L287.619,48.113L287.865,47.94L288.112,47.768L288.36,47.597L288.608,47.427L288.856,47.257L289.105,47.088L289.355,46.92L289.605,46.753L289.856,46.586L290.107,46.42L290.359,46.255L290.611,46.09L290.864,45.926L291.117,45.763L291.371,45.601L291.626,45.439L291.881,45.279L292.136,45.119L292.392,44.959L292.648,44.801L292.905,44.643L293.163,44.486L293.421,44.33L293.679,44.174L293.938,44.019L294.198,43.865L294.458,43.712L294.718,43.56L294.979,43.408L295.241,43.257L295.503,43.107L295.765,42.957L296.028,42.809L296.292,42.661L296.556,42.514L296.82,42.367L297.085,42.222L297.35,42.077L297.616,41.933L297.883,41.79L298.15,41.647L298.417,41.506L298.685,41.365L298.953,41.225L299.222,41.085L299.491,40.947L299.761,40.809L300.031,40.672L300.302,40.536L300.573,40.401L300.844,40.266L301.116,40.132L301.389,40L301.662,39.867L301.935,39.736L302.209,39.606L302.484,39.476L302.758,39.347L303.034,39.219L303.309,39.092L303.586,38.965L303.862,38.839L304.139,38.715L304.417,38.591L304.695,38.467L304.973,38.345L305.252,38.223L305.531,38.103L305.811,37.983L306.091,37.864L306.372,37.745L306.653,37.628L306.934,37.511L307.216,37.396L307.498,37.281L307.781,37.167L308.064,37.053L308.348,36.941L308.632,36.829L308.916,36.719L309.201,36.609L309.486,36.5L309.772,36.392L310.058,36.284L310.345,36.178L310.631,36.072L310.919,35.967L311.207,35.863L311.495,35.76L311.783,35.658L312.072,35.557L312.361,35.456L312.651,35.357L312.941,35.258L313.232,35.16L313.523,35.063L313.814,34.967L314.106,34.871L314.398,34.777L314.691,34.683L314.983,34.591L315.277,34.499L315.57,34.408L315.865,34.318L316.159,34.229L316.454,34.141L316.749,34.053L317.045,33.967L317.341,33.881L317.637,33.796L317.934,33.712L318.231,33.629L318.528,33.547L318.826,33.466L319.124,33.386L319.423,33.307L319.722,33.228L320.021,33.151L320.32,33.074L320.62,32.998L320.921,32.923L321.221,32.849L321.523,32.776L321.824,32.704L322.126,32.633L322.428,32.563L322.73,32.493L323.033,32.425L323.336,32.357L323.64,32.291L323.944,32.225L324.248,32.16L324.552,32.096L324.857,32.033L325.162,31.971L325.468,31.91L325.774,31.85L326.08,31.791L326.386,31.732L326.693,31.675L327,31.619L327.308,31.563L327.616,31.509L327.924,31.455L328.232,31.402L328.541,31.351L328.85,31.3L329.16,31.25L329.469,31.201L329.78,31.153L330.09,31.106L330.401,31.06L330.712,31.015L331.023,30.971L331.334,30.928L331.646,30.886L331.959,30.844L332.271,30.804L332.584,30.765L332.897,30.726L333.21,30.689L333.524,30.653L333.838,30.617L334.152,30.583L334.467,30.549L334.782,30.517L335.097,30.485L335.412,30.455L335.728,30.425L336.044,30.396L336.36,30.369L336.677,30.342L336.994,30.316L337.311,30.292L337.628,30.268L337.946,30.245L338.264,30.224L338.582,30.203L338.9,30.183L339.219,30.165L339.538,30.147L339.857,30.13L340.177,30.115L340.497,30.1L340.817,30.086L341.137,30.073L341.457,30.062L341.778,30.051L342.099,30.041L342.421,30.033L342.742,30.025L343.064,30.018L343.386,30.013L343.708,30.008L344.031,30.005L344.354,30.002L344.677,30.001L345,30L345.323,30.001ZM344.715,42L344.43,42.002L344.145,42.004L343.861,42.007L343.576,42.011L343.292,42.016L343.009,42.022L342.725,42.029L342.442,42.036L342.159,42.045L341.876,42.054L341.593,42.065L341.311,42.076L341.029,42.088L340.747,42.101L340.466,42.115L340.184,42.13L339.903,42.145L339.622,42.162L339.342,42.179L339.062,42.197L338.782,42.216L338.502,42.236L338.222,42.257L337.943,42.279L337.664,42.301L337.385,42.325L337.107,42.349L336.829,42.374L336.551,42.4L336.273,42.427L335.996,42.455L335.719,42.484L335.442,42.513L335.165,42.544L334.889,42.575L334.613,42.607L334.337,42.64L334.061,42.673L333.786,42.708L333.511,42.743L333.236,42.78L332.962,42.817L332.688,42.855L332.414,42.894L332.14,42.933L331.867,42.974L331.594,43.015L331.321,43.057L331.049,43.1L330.777,43.144L330.505,43.189L330.233,43.234L329.962,43.281L329.691,43.328L329.42,43.376L329.15,43.424L328.88,43.474L328.61,43.525L328.34,43.576L328.071,43.628L327.802,43.681L327.534,43.735L327.265,43.789L326.997,43.844L326.73,43.901L326.462,43.958L326.195,44.015L325.928,44.074L325.662,44.133L325.395,44.193L325.13,44.255L324.864,44.316L324.599,44.379L324.334,44.442L324.069,44.507L323.805,44.572L323.541,44.637L323.277,44.704L323.014,44.771L322.751,44.84L322.488,44.909L322.225,44.978L321.963,45.049L321.701,45.12L321.44,45.192L321.179,45.265L320.918,45.339L320.658,45.413L320.397,45.489L320.138,45.565L319.878,45.642L319.619,45.719L319.36,45.798L319.102,45.877L318.844,45.957L318.586,46.037L318.328,46.119L318.071,46.201L317.815,46.284L317.558,46.368L317.302,46.452L317.046,46.538L316.791,46.624L316.536,46.711L316.281,46.798L316.027,46.886L315.773,46.976L315.519,47.065L315.266,47.156L315.013,47.247L314.76,47.339L314.508,47.432L314.256,47.526L314.005,47.62L313.754,47.715L313.503,47.811L313.252,47.908L313.002,48.005L312.753,48.103L312.503,48.202L312.254,48.302L312.006,48.402L311.758,48.503L311.51,48.605L311.262,48.707L311.015,48.811L310.769,48.915L310.522,49.019L310.276,49.125L310.031,49.231L309.786,49.338L309.541,49.445L309.296,49.554L309.052,49.663L308.809,49.773L308.565,49.883L308.322,49.994L308.08,50.106L307.838,50.219L307.596,50.332L307.355,50.446L307.114,50.561L306.874,50.677L306.634,50.793L306.394,50.91L306.155,51.027L305.916,51.146L305.677,51.265L305.439,51.384L305.201,51.505L304.964,51.626L304.727,51.748L304.491,51.87L304.255,51.994L304.019,52.118L303.784,52.242L303.549,52.367L303.315,52.494L303.081,52.62L302.847,52.748L302.614,52.876L302.382,53.004L302.149,53.134L301.918,53.264L301.686,53.395L301.455,53.526L301.225,53.658L300.995,53.791L300.765,53.925L300.536,54.059L300.307,54.194L300.078,54.329L299.851,54.466L299.623,54.602L299.396,54.74L299.17,54.878L298.943,55.017L298.718,55.157L298.492,55.297L298.268,55.438L298.043,55.579L297.819,55.721L297.596,55.864L297.373,56.008L297.15,56.152L296.928,56.297L296.707,56.442L296.485,56.588L296.265,56.735L296.044,56.883L295.825,57.031L295.605,57.179L295.387,57.329L295.168,57.479L294.95,57.629L294.733,57.78L294.516,57.932L294.299,58.085L294.083,58.238L293.868,58.392L293.653,58.546L293.438,58.701L293.224,58.857L293.01,59.014L292.797,59.17L292.585,59.328L292.372,59.486L292.161,59.645L291.949,59.805L291.739,59.965L291.529,60.125L291.319,60.287L291.11,60.449L290.901,60.611L290.693,60.774L290.485,60.938L290.278,61.103L290.071,61.268L289.865,61.433L289.659,61.599L289.454,61.766L289.249,61.934L289.045,62.102L288.841,62.27L288.638,62.44L288.435,62.609L288.233,62.78L288.032,62.951L287.831,63.122L287.63,63.295L287.43,63.467L287.23,63.641L287.031,63.815L286.833,63.989L286.635,64.164L286.438,64.34L286.241,64.517L286.044,64.694L285.848,64.871L285.653,65.049L285.458,65.228L285.264,65.407L285.07,65.587L284.877,65.767L284.684,65.948L284.493,66.129L284.301,66.311L284.11,66.494L283.919,66.677L283.73,66.861L283.54,67.046L283.351,67.23L283.163,67.416L282.976,67.602L282.788,67.788L282.602,67.976L282.416,68.163L282.23,68.352L282.046,68.54L281.861,68.73L281.677,68.92L281.494,69.11L281.312,69.301L281.13,69.492L280.948,69.685L280.767,69.877L280.587,70.07L280.407,70.264L280.228,70.458L280.049,70.653L279.871,70.848L279.693,71.044L279.516,71.241L279.34,71.437L279.165,71.635L278.989,71.833L278.815,72.031L278.641,72.23L278.467,72.43L278.295,72.63L278.122,72.831L277.951,73.032L277.78,73.233L277.609,73.435L277.44,73.638L277.27,73.841L277.102,74.045L276.934,74.249L276.766,74.454L276.599,74.659L276.433,74.865L276.268,75.071L276.102,75.278L275.938,75.485L275.775,75.692L275.611,75.901L275.449,76.11L275.287,76.319L275.125,76.528L274.965,76.739L274.805,76.949L274.645,77.161L274.486,77.372L274.328,77.585L274.171,77.797L274.014,78.01L273.857,78.224L273.701,78.438L273.546,78.653L273.392,78.868L273.238,79.083L273.085,79.299L272.932,79.516L272.78,79.733L272.629,79.95L272.479,80.168L272.329,80.386L272.179,80.605L272.031,80.825L271.882,81.044L271.735,81.265L271.588,81.485L271.442,81.707L271.297,81.928L271.152,82.15L271.008,82.373L270.864,82.596L270.721,82.819L270.579,83.043L270.438,83.268L270.297,83.492L270.157,83.718L270.017,83.943L269.878,84.169L269.74,84.396L269.602,84.623L269.466,84.851L269.329,85.078L269.194,85.307L269.059,85.536L268.925,85.765L268.791,85.995L268.658,86.225L268.526,86.455L268.395,86.686L268.264,86.918L268.134,87.149L268.004,87.382L267.876,87.614L267.748,87.847L267.62,88.081L267.493,88.315L267.368,88.549L267.242,88.784L267.118,89.019L266.994,89.255L266.87,89.491L266.748,89.727L266.626,89.964L266.505,90.201L266.384,90.439L266.265,90.677L266.146,90.916L266.027,91.154L265.91,91.394L265.793,91.634L265.677,91.874L265.561,92.114L265.446,92.355L265.332,92.596L265.219,92.838L265.106,93.08L264.994,93.323L264.883,93.566L264.773,93.809L264.663,94.052L264.554,94.296L264.445,94.541L264.338,94.785L264.231,95.031L264.125,95.276L264.019,95.522L263.915,95.768L263.811,96.015L263.707,96.262L263.605,96.51L263.503,96.758L263.402,97.006L263.302,97.255L263.202,97.503L263.103,97.753L263.005,98.002L262.908,98.252L262.811,98.503L262.715,98.754L262.62,99.005L262.526,99.256L262.432,99.508L262.339,99.76L262.247,100.013L262.156,100.266L262.065,100.519L261.976,100.773L261.886,101.027L261.798,101.281L261.711,101.536L261.624,101.791L261.538,102.046L261.452,102.302L261.368,102.558L261.284,102.815L261.201,103.071L261.119,103.328L261.037,103.586L260.957,103.844L260.877,104.102L260.798,104.36L260.719,104.619L260.642,104.878L260.565,105.138L260.489,105.397L260.413,105.658L260.339,105.918L260.265,106.179L260.192,106.44L260.12,106.701L260.049,106.963L259.978,107.226L259.909,107.488L259.84,107.75L259.771,108.014L259.704,108.277L259.637,108.541L259.572,108.805L259.507,109.069L259.442,109.334L259.379,109.599L259.316,109.864L259.254,110.13L259.193,110.396L259.133,110.662L259.074,110.928L259.015,111.195L258.958,111.462L258.901,111.73L258.844,111.997L258.789,112.265L258.734,112.534L258.681,112.802L258.628,113.071L258.576,113.341L258.525,113.61L258.474,113.88L258.424,114.15L258.376,114.421L258.328,114.691L258.281,114.962L258.234,115.234L258.189,115.505L258.144,115.777L258.1,116.049L258.057,116.321L258.015,116.594L257.974,116.867L257.933,117.141L257.894,117.414L257.855,117.688L257.817,117.962L257.78,118.236L257.743,118.511L257.708,118.786L257.673,119.061L257.64,119.337L257.607,119.613L257.575,119.889L257.544,120.165L257.513,120.442L257.484,120.718L257.455,120.996L257.427,121.273L257.4,121.551L257.374,121.829L257.349,122.107L257.325,122.385L257.301,122.664L257.279,122.943L257.257,123.222L257.236,123.502L257.216,123.782L257.197,124.062L257.179,124.342L257.162,124.622L257.145,124.903L257.13,125.184L257.115,125.466L257.101,125.747L257.088,126.029L257.076,126.311L257.065,126.593L257.054,126.876L257.045,127.159L257.036,127.442L257.029,127.725L257.022,128.009L257.016,128.292L257.011,128.576L257.007,128.861L257.004,129.145L257.002,129.43L257,129.715L257,130L257,130.285L257.002,130.57L257.004,130.855L257.007,131.139L257.011,131.424L257.016,131.708L257.022,131.991L257.029,132.275L257.036,132.558L257.045,132.841L257.054,133.124L257.065,133.407L257.076,133.689L257.088,133.971L257.101,134.253L257.115,134.534L257.13,134.816L257.145,135.097L257.162,135.378L257.179,135.658L257.197,135.938L257.216,136.218L257.236,136.498L257.257,136.778L257.279,137.057L257.301,137.336L257.325,137.615L257.349,137.893L257.374,138.171L257.4,138.449L257.427,138.727L257.455,139.004L257.484,139.282L257.513,139.558L257.544,139.835L257.575,140.111L257.607,140.387L257.64,140.663L257.673,140.939L257.708,141.214L257.743,141.489L257.78,141.764L257.817,142.038L257.855,142.312L257.894,142.586L257.933,142.859L257.974,143.133L258.015,143.406L258.057,143.679L258.1,143.951L258.144,144.223L258.189,144.495L258.234,144.766L258.281,145.038L258.328,145.309L258.376,145.579L258.424,145.85L258.474,146.12L258.525,146.39L258.576,146.659L258.628,146.929L258.681,147.198L258.734,147.466L258.789,147.735L258.844,148.003L258.901,148.27L258.958,148.538L259.015,148.805L259.074,149.072L259.133,149.338L259.193,149.604L259.254,149.87L259.316,150.136L259.379,150.401L259.442,150.666L259.507,150.931L259.572,151.195L259.637,151.459L259.704,151.723L259.771,151.986L259.84,152.25L259.909,152.512L259.978,152.774L260.049,153.037L260.12,153.299L260.192,153.56L260.265,153.821L260.339,154.082L260.413,154.342L260.489,154.603L260.565,154.862L260.642,155.122L260.719,155.381L260.798,155.64L260.877,155.898L260.957,156.156L261.037,156.414L261.119,156.672L261.201,156.929L261.284,157.185L261.368,157.442L261.452,157.698L261.538,157.954L261.624,158.209L261.711,158.464L261.798,158.719L261.886,158.973L261.975,159.227L262.065,159.481L262.156,159.734L262.247,159.987L262.339,160.24L262.432,160.492L262.526,160.744L262.62,160.995L262.715,161.246L262.811,161.497L262.908,161.748L263.005,161.998L263.103,162.247L263.202,162.497L263.302,162.745L263.402,162.994L263.503,163.242L263.605,163.49L263.707,163.738L263.811,163.985L263.915,164.232L264.019,164.478L264.125,164.724L264.231,164.969L264.338,165.215L264.445,165.459L264.554,165.704L264.663,165.948L264.773,166.191L264.883,166.434L264.994,166.677L265.106,166.92L265.219,167.162L265.332,167.404L265.446,167.645L265.561,167.886L265.677,168.126L265.793,168.366L265.91,168.606L266.027,168.846L266.146,169.084L266.265,169.323L266.384,169.561L266.505,169.799L266.626,170.036L266.748,170.273L266.87,170.509L266.994,170.745L267.118,170.981L267.242,171.216L267.368,171.451L267.494,171.685L267.62,171.919L267.748,172.153L267.876,172.386L268.004,172.618L268.134,172.851L268.264,173.082L268.395,173.314L268.526,173.545L268.658,173.775L268.791,174.005L268.925,174.235L269.059,174.464L269.194,174.693L269.329,174.922L269.466,175.149L269.602,175.377L269.74,175.604L269.878,175.83L270.017,176.057L270.157,176.282L270.297,176.508L270.438,176.732L270.579,176.957L270.721,177.181L270.864,177.404L271.008,177.627L271.152,177.85L271.297,178.072L271.442,178.293L271.588,178.515L271.735,178.735L271.883,178.956L272.031,179.175L272.179,179.395L272.329,179.614L272.479,179.832L272.629,180.05L272.78,180.267L272.932,180.484L273.085,180.701L273.238,180.917L273.392,181.132L273.546,181.347L273.701,181.562L273.857,181.776L274.014,181.99L274.171,182.203L274.328,182.415L274.486,182.627L274.645,182.839L274.805,183.051L274.965,183.261L275.125,183.472L275.287,183.681L275.449,183.89L275.611,184.099L275.775,184.308L275.938,184.515L276.102,184.722L276.268,184.929L276.433,185.135L276.599,185.341L276.766,185.546L276.934,185.751L277.102,185.955L277.27,186.159L277.44,186.362L277.609,186.565L277.78,186.767L277.951,186.968L278.122,187.169L278.295,187.37L278.467,187.57L278.641,187.77L278.815,187.969L278.989,188.167L279.164,188.365L279.34,188.563L279.517,188.759L279.693,188.956L279.871,189.152L280.049,189.347L280.228,189.542L280.407,189.736L280.587,189.93L280.767,190.123L280.948,190.315L281.13,190.508L281.311,190.699L281.494,190.89L281.678,191.081L281.861,191.27L282.046,191.46L282.23,191.648L282.416,191.837L282.602,192.024L282.788,192.212L282.976,192.398L283.163,192.584L283.352,192.77L283.54,192.954L283.73,193.139L283.919,193.322L284.11,193.506L284.301,193.689L284.492,193.87L284.685,194.052L284.877,194.233L285.07,194.413L285.264,194.593L285.458,194.772L285.653,194.951L285.848,195.129L286.044,195.307L286.241,195.483L286.437,195.66L286.635,195.836L286.833,196.011L287.031,196.185L287.23,196.359L287.43,196.533L287.63,196.705L287.831,196.878L288.032,197.049L288.233,197.22L288.435,197.391L288.638,197.56L288.841,197.73L289.045,197.898L289.249,198.066L289.454,198.234L289.659,198.401L289.865,198.567L290.071,198.732L290.278,198.898L290.485,199.062L290.692,199.225L290.901,199.389L291.11,199.551L291.319,199.713L291.528,199.875L291.739,200.035L291.949,200.195L292.161,200.355L292.373,200.514L292.585,200.672L292.797,200.829L293.01,200.986L293.224,201.143L293.438,201.299L293.653,201.454L293.867,201.608L294.083,201.762L294.299,201.915L294.516,202.068L294.733,202.22L294.95,202.371L295.168,202.521L295.387,202.671L295.605,202.821L295.824,202.969L296.045,203.118L296.264,203.265L296.485,203.412L296.707,203.558L296.928,203.703L297.151,203.848L297.373,203.992L297.596,204.136L297.819,204.279L298.043,204.421L298.268,204.562L298.493,204.703L298.718,204.843L298.943,204.983L299.17,205.122L299.396,205.26L299.623,205.397L299.85,205.534L300.079,205.671L300.307,205.806L300.536,205.941L300.765,206.075L300.994,206.209L301.224,206.341L301.455,206.474L301.686,206.605L301.917,206.736L302.149,206.866L302.382,206.996L302.615,207.124L302.848,207.252L303.081,207.38L303.315,207.506L303.549,207.633L303.784,207.758L304.019,207.883L304.255,208.006L304.491,208.129L304.727,208.252L304.964,208.374L305.202,208.495L305.439,208.616L305.677,208.735L305.916,208.854L306.155,208.973L306.394,209.09L306.634,209.207L306.874,209.323L307.114,209.439L307.355,209.554L307.596,209.668L307.838,209.781L308.08,209.894L308.322,210.006L308.565,210.117L308.809,210.228L309.053,210.337L309.296,210.446L309.541,210.555L309.786,210.662L310.031,210.769L310.276,210.875L310.522,210.981L310.769,211.086L311.015,211.189L311.262,211.293L311.51,211.395L311.758,211.497L312.006,211.598L312.254,211.698L312.503,211.798L312.753,211.897L313.002,211.995L313.252,212.092L313.503,212.189L313.753,212.284L314.005,212.38L314.256,212.474L314.508,212.568L314.76,212.661L315.013,212.753L315.266,212.844L315.519,212.935L315.773,213.024L316.027,213.114L316.281,213.202L316.536,213.29L316.791,213.376L317.046,213.462L317.302,213.548L317.558,213.632L317.815,213.716L318.071,213.799L318.328,213.881L318.586,213.963L318.843,214.043L319.102,214.123L319.361,214.203L319.619,214.281L319.878,214.358L320.138,214.435L320.398,214.511L320.658,214.587L320.918,214.661L321.179,214.735L321.44,214.808L321.702,214.88L321.964,214.951L322.225,215.022L322.488,215.091L322.75,215.16L323.014,215.229L323.277,215.296L323.541,215.363L323.805,215.429L324.069,215.493L324.334,215.558L324.599,215.621L324.864,215.684L325.129,215.745L325.395,215.806L325.662,215.867L325.928,215.926L326.195,215.985L326.462,216.042L326.729,216.099L326.997,216.156L327.265,216.211L327.534,216.266L327.803,216.319L328.071,216.372L328.34,216.424L328.61,216.475L328.88,216.526L329.15,216.576L329.42,216.624L329.691,216.672L329.962,216.719L330.233,216.766L330.505,216.811L330.777,216.856L331.049,216.9L331.322,216.943L331.594,216.985L331.867,217.026L332.14,217.067L332.414,217.106L332.688,217.145L332.962,217.183L333.236,217.22L333.511,217.257L333.786,217.292L334.061,217.327L334.337,217.36L334.613,217.393L334.889,217.425L335.165,217.456L335.441,217.487L335.719,217.516L335.996,217.545L336.273,217.573L336.551,217.6L336.829,217.626L337.107,217.651L337.385,217.675L337.664,217.699L337.943,217.721L338.222,217.743L338.502,217.764L338.782,217.784L339.061,217.803L339.342,217.821L339.623,217.838L339.903,217.855L340.184,217.87L340.466,217.885L340.747,217.899L341.029,217.912L341.311,217.924L341.594,217.935L341.876,217.946L342.158,217.955L342.442,217.964L342.725,217.971L343.009,217.978L343.292,217.984L343.577,217.989L343.861,217.993L344.145,217.996L344.43,217.998L344.715,218L345,218L345.285,218L345.57,217.998L345.855,217.996L346.139,217.993L346.423,217.989L346.708,217.984L346.991,217.978L347.275,217.971L347.558,217.964L347.842,217.955L348.124,217.946L348.406,217.935L348.689,217.924L348.971,217.912L349.253,217.899L349.534,217.885L349.816,217.87L350.097,217.855L350.377,217.838L350.658,217.821L350.939,217.803L351.218,217.784L351.498,217.764L351.778,217.743L352.057,217.721L352.336,217.699L352.615,217.675L352.893,217.651L353.171,217.626L353.449,217.6L353.727,217.573L354.004,217.545L354.281,217.516L354.559,217.487L354.835,217.456L355.111,217.425L355.387,217.393L355.663,217.36L355.939,217.327L356.214,217.292L356.489,217.257L356.764,217.22L357.038,217.183L357.312,217.145L357.586,217.106L357.86,217.067L358.133,217.026L358.406,216.985L358.678,216.943L358.951,216.9L359.223,216.856L359.495,216.811L359.767,216.766L360.038,216.719L360.309,216.672L360.58,216.624L360.85,216.576L361.12,216.526L361.39,216.475L361.66,216.424L361.929,216.372L362.197,216.319L362.466,216.266L362.735,216.211L363.003,216.156L363.271,216.099L363.538,216.042L363.805,215.985L364.072,215.926L364.338,215.867L364.605,215.806L364.871,215.745L365.136,215.684L365.401,215.621L365.666,215.558L365.931,215.493L366.195,215.429L366.459,215.363L366.723,215.296L366.986,215.229L367.25,215.16L367.512,215.091L367.775,215.022L368.036,214.951L368.298,214.88L368.56,214.808L368.821,214.735L369.082,214.661L369.342,214.587L369.602,214.511L369.862,214.435L370.122,214.358L370.381,214.281L370.639,214.203L370.898,214.123L371.157,214.043L371.414,213.963L371.672,213.881L371.929,213.799L372.185,213.716L372.442,213.632L372.698,213.548L372.954,213.462L373.209,213.376L373.464,213.29L373.719,213.202L373.973,213.114L374.227,213.024L374.481,212.935L374.734,212.844L374.987,212.753L375.24,212.661L375.492,212.568L375.744,212.474L375.995,212.38L376.247,212.285L376.497,212.189L376.748,212.092L376.998,211.995L377.247,211.897L377.497,211.798L377.746,211.698L377.994,211.598L378.242,211.497L378.49,211.395L378.738,211.293L378.985,211.189L379.231,211.086L379.478,210.981L379.724,210.875L379.969,210.769L380.214,210.662L380.459,210.555L380.704,210.446L380.947,210.337L381.191,210.228L381.435,210.117L381.678,210.006L381.92,209.894L382.162,209.781L382.404,209.668L382.645,209.554L382.886,209.439L383.127,209.323L383.367,209.207L383.606,209.09L383.845,208.973L384.084,208.854L384.323,208.735L384.561,208.615L384.798,208.495L385.036,208.374L385.273,208.252L385.509,208.129L385.745,208.006L385.981,207.883L386.216,207.758L386.451,207.633L386.685,207.506L386.919,207.38L387.152,207.253L387.385,207.125L387.618,206.996L387.851,206.866L388.083,206.736L388.314,206.605L388.544,206.474L388.775,206.341L389.006,206.209L389.235,206.075L389.465,205.941L389.693,205.806L389.921,205.671L390.15,205.534L390.377,205.398L390.603,205.26L390.831,205.122L391.057,204.983L391.282,204.843L391.507,204.703L391.732,204.562L391.957,204.421L392.181,204.279L392.405,204.135L392.627,203.992L392.849,203.848L393.072,203.703L393.293,203.558L393.515,203.412L393.735,203.265L393.955,203.118L394.175,202.969L394.395,202.821L394.614,202.671L394.832,202.521L395.05,202.371L395.267,202.219L395.484,202.068L395.701,201.915L395.917,201.762L396.132,201.608L396.348,201.453L396.562,201.298L396.776,201.143L396.99,200.987L397.203,200.83L397.415,200.672L397.628,200.514L397.84,200.355L398.05,200.196L398.261,200.035L398.472,199.874L398.681,199.713L398.89,199.551L399.099,199.389L399.308,199.225L399.515,199.062L399.722,198.898L399.929,198.732L400.135,198.567L400.341,198.401L400.546,198.234L400.751,198.067L400.955,197.898L401.159,197.73L401.362,197.561L401.564,197.391L401.767,197.22L401.968,197.049L402.169,196.878L402.37,196.705L402.57,196.532L402.769,196.359L402.969,196.185L403.167,196.011L403.365,195.836L403.562,195.66L403.759,195.483L403.956,195.306L404.152,195.129L404.347,194.951L404.542,194.772L404.736,194.593L404.93,194.413L405.123,194.233L405.315,194.052L405.508,193.87L405.699,193.688L405.89,193.506L406.08,193.323L406.27,193.139L406.46,192.954L406.648,192.77L406.837,192.584L407.024,192.398L407.212,192.212L407.398,192.024L407.584,191.837L407.769,191.649L407.954,191.46L408.139,191.27L408.323,191.08L408.506,190.89L408.689,190.699L408.871,190.507L409.052,190.316L409.233,190.123L409.413,189.93L409.593,189.736L409.772,189.542L409.951,189.347L410.129,189.152L410.306,188.956L410.483,188.759L410.66,188.563L410.836,188.365L411.011,188.167L411.185,187.969L411.359,187.77L411.533,187.57L411.705,187.37L411.878,187.169L412.049,186.968L412.22,186.767L412.391,186.565L412.56,186.362L412.73,186.159L412.898,185.955L413.066,185.751L413.234,185.546L413.401,185.341L413.567,185.135L413.733,184.929L413.898,184.722L414.062,184.515L414.226,184.307L414.389,184.099L414.551,183.891L414.713,183.681L414.875,183.471L415.035,183.261L415.195,183.051L415.355,182.839L415.514,182.628L415.672,182.416L415.83,182.203L415.986,181.99L416.143,181.776L416.299,181.562L416.454,181.347L416.608,181.133L416.762,180.917L416.915,180.701L417.068,180.484L417.22,180.267L417.371,180.05L417.521,179.832L417.671,179.613L417.821,179.395L417.969,179.176L418.118,178.955L418.265,178.736L418.412,178.515L418.558,178.293L418.703,178.072L418.848,177.849L418.992,177.627L419.136,177.404L419.279,177.181L419.421,176.957L419.562,176.732L419.703,176.507L419.843,176.282L419.983,176.057L420.122,175.83L420.26,175.604L420.397,175.377L420.534,175.15L420.671,174.921L420.806,174.693L420.941,174.464L421.075,174.235L421.209,174.006L421.341,173.776L421.474,173.545L421.605,173.314L421.736,173.083L421.866,172.851L421.996,172.618L422.124,172.385L422.252,172.152L422.38,171.919L422.506,171.685L422.633,171.451L422.758,171.216L422.883,170.981L423.006,170.745L423.129,170.509L423.252,170.273L423.374,170.036L423.495,169.798L423.616,169.561L423.735,169.323L423.854,169.084L423.973,168.845L424.09,168.606L424.207,168.366L424.323,168.126L424.439,167.886L424.554,167.645L424.668,167.404L424.781,167.162L424.894,166.92L425.006,166.678L425.117,166.435L425.228,166.191L425.337,165.947L425.446,165.704L425.555,165.459L425.662,165.214L425.769,164.969L425.875,164.724L425.981,164.478L426.086,164.231L426.189,163.985L426.293,163.738L426.395,163.49L426.497,163.242L426.598,162.994L426.698,162.746L426.798,162.497L426.897,162.247L426.995,161.998L427.092,161.748L427.189,161.497L427.284,161.247L427.38,160.995L427.474,160.744L427.568,160.492L427.661,160.24L427.753,159.987L427.844,159.734L427.935,159.481L428.024,159.227L428.114,158.973L428.202,158.719L428.29,158.464L428.376,158.209L428.462,157.954L428.548,157.698L428.632,157.442L428.716,157.186L428.799,156.929L428.881,156.672L428.963,156.414L429.043,156.157L429.123,155.898L429.203,155.639L429.281,155.381L429.358,155.122L429.435,154.862L429.511,154.602L429.587,154.342L429.661,154.082L429.735,153.821L429.808,153.56L429.88,153.298L429.951,153.037L430.022,152.775L430.091,152.512L430.16,152.25L430.229,151.986L430.296,151.723L430.363,151.459L430.429,151.195L430.493,150.931L430.558,150.666L430.621,150.401L430.684,150.136L430.745,149.871L430.806,149.605L430.867,149.338L430.926,149.072L430.985,148.805L431.042,148.538L431.099,148.271L431.156,148.003L431.211,147.735L431.266,147.466L431.319,147.198L431.372,146.929L431.424,146.659L431.475,146.39L431.526,146.12L431.576,145.85L431.624,145.58L431.672,145.309L431.719,145.038L431.766,144.767L431.811,144.495L431.856,144.223L431.9,143.951L431.943,143.678L431.985,143.406L432.026,143.133L432.067,142.86L432.106,142.586L432.145,142.312L432.183,142.038L432.22,141.764L432.257,141.489L432.292,141.214L432.327,140.939L432.36,140.663L432.393,140.388L432.425,140.111L432.456,139.835L432.487,139.559L432.516,139.281L432.545,139.004L432.573,138.727L432.6,138.449L432.626,138.171L432.651,137.893L432.675,137.615L432.699,137.336L432.721,137.057L432.743,136.778L432.764,136.498L432.784,136.218L432.803,135.939L432.821,135.658L432.838,135.377L432.855,135.097L432.87,134.816L432.885,134.534L432.899,134.253L432.912,133.971L432.924,133.689L432.935,133.406L432.946,133.124L432.955,132.842L432.964,132.558L432.971,132.275L432.978,131.991L432.984,131.708L432.989,131.423L432.993,131.139L432.996,130.855L432.998,130.57L433,130.285L433,130L433,129.715L432.998,129.43L432.996,129.145L432.993,128.861L432.989,128.577L432.984,128.292L432.978,128.009L432.971,127.725L432.964,127.442L432.955,127.158L432.946,126.876L432.935,126.594L432.924,126.311L432.912,126.029L432.899,125.747L432.885,125.466L432.87,125.184L432.855,124.903L432.838,124.623L432.821,124.342L432.803,124.061L432.784,123.782L432.764,123.502L432.743,123.222L432.721,122.943L432.699,122.664L432.675,122.385L432.651,122.107L432.626,121.829L432.6,121.551L432.573,121.273L432.545,120.996L432.516,120.719L432.487,120.441L432.456,120.165L432.425,119.889L432.393,119.612L432.36,119.337L432.327,119.061L432.292,118.786L432.257,118.511L432.22,118.236L432.183,117.962L432.145,117.688L432.106,117.414L432.067,117.14L432.026,116.867L431.985,116.594L431.943,116.322L431.9,116.049L431.856,115.777L431.811,115.505L431.766,115.233L431.719,114.962L431.672,114.691L431.624,114.42L431.576,114.15L431.526,113.88L431.475,113.61L431.424,113.341L431.372,113.071L431.319,112.802L431.266,112.534L431.211,112.265L431.156,111.997L431.099,111.729L431.042,111.462L430.985,111.195L430.926,110.928L430.867,110.662L430.806,110.395L430.745,110.129L430.684,109.864L430.621,109.599L430.558,109.333L430.493,109.069L430.429,108.805L430.363,108.541L430.296,108.277L430.229,108.014L430.16,107.75L430.091,107.488L430.022,107.225L429.951,106.964L429.88,106.702L429.808,106.44L429.735,106.179L429.661,105.918L429.587,105.658L429.511,105.398L429.435,105.138L429.358,104.878L429.281,104.619L429.203,104.361L429.123,104.102L429.043,103.843L428.963,103.586L428.881,103.328L428.799,103.071L428.716,102.814L428.632,102.558L428.548,102.302L428.462,102.046L428.376,101.791L428.29,101.536L428.202,101.281L428.114,101.027L428.024,100.773L427.935,100.519L427.844,100.266L427.753,100.013L427.661,99.76L427.568,99.508L427.474,99.256L427.38,99.005L427.284,98.753L427.189,98.503L427.092,98.252L426.995,98.002L426.897,97.753L426.798,97.503L426.698,97.254L426.598,97.006L426.497,96.758L426.395,96.51L426.293,96.262L426.189,96.015L426.086,95.769L425.981,95.522L425.875,95.276L425.769,95.031L425.662,94.786L425.555,94.541L425.446,94.296L425.337,94.053L425.228,93.809L425.117,93.565L425.006,93.322L424.894,93.08L424.781,92.838L424.668,92.596L424.554,92.355L424.439,92.114L424.323,91.874L424.207,91.634L424.09,91.394L423.973,91.155L423.854,90.916L423.735,90.677L423.616,90.439L423.495,90.202L423.374,89.964L423.252,89.727L423.13,89.491L423.006,89.255L422.883,89.019L422.758,88.784L422.633,88.549L422.506,88.315L422.38,88.081L422.252,87.848L422.124,87.615L421.996,87.382L421.866,87.149L421.736,86.917L421.605,86.686L421.474,86.455L421.341,86.224L421.209,85.994L421.075,85.765L420.941,85.536L420.806,85.307L420.671,85.079L420.534,84.85L420.397,84.623L420.26,84.396L420.122,84.169L419.983,83.943L419.843,83.718L419.703,83.492L419.562,83.268L419.421,83.043L419.279,82.819L419.136,82.596L418.992,82.373L418.848,82.151L418.703,81.928L418.558,81.707L418.412,81.485L418.265,81.264L418.118,81.045L417.969,80.825L417.821,80.605L417.671,80.387L417.521,80.168L417.371,79.95L417.22,79.733L417.068,79.516L416.915,79.299L416.762,79.083L416.608,78.868L416.454,78.653L416.299,78.438L416.143,78.224L415.986,78.01L415.83,77.797L415.672,77.584L415.514,77.372L415.355,77.161L415.195,76.949L415.035,76.739L414.875,76.529L414.713,76.319L414.551,76.109L414.389,75.901L414.226,75.693L414.062,75.485L413.898,75.278L413.733,75.071L413.567,74.865L413.401,74.659L413.234,74.454L413.066,74.249L412.898,74.045L412.73,73.841L412.56,73.638L412.391,73.435L412.22,73.233L412.049,73.032L411.878,72.831L411.705,72.63L411.533,72.43L411.359,72.231L411.185,72.031L411.011,71.833L410.835,71.635L410.66,71.437L410.483,71.241L410.307,71.044L410.129,70.848L409.951,70.653L409.772,70.458L409.593,70.264L409.413,70.07L409.233,69.877L409.052,69.685L408.871,69.493L408.688,69.301L408.506,69.11L408.323,68.92L408.139,68.73L407.954,68.54L407.77,68.352L407.584,68.163L407.398,67.976L407.212,67.788L407.024,67.602L406.837,67.416L406.649,67.23L406.46,67.046L406.27,66.861L406.08,66.677L405.89,66.494L405.699,66.312L405.508,66.13L405.315,65.948L405.123,65.767L404.93,65.587L404.736,65.407L404.542,65.228L404.347,65.049L404.152,64.871L403.956,64.694L403.759,64.517L403.562,64.34L403.365,64.164L403.167,63.989L402.969,63.815L402.769,63.641L402.57,63.468L402.37,63.295L402.169,63.122L401.968,62.951L401.767,62.78L401.564,62.609L401.362,62.439L401.159,62.27L400.955,62.102L400.751,61.933L400.546,61.766L400.341,61.599L400.135,61.433L399.929,61.268L399.722,61.103L399.515,60.938L399.307,60.774L399.099,60.611L398.89,60.449L398.681,60.287L398.472,60.125L398.261,59.965L398.05,59.804L397.839,59.645L397.628,59.486L397.415,59.328L397.203,59.17L396.99,59.013L396.776,58.857L396.562,58.702L396.348,58.547L396.132,58.392L395.917,58.238L395.701,58.085L395.484,57.932L395.267,57.781L395.05,57.629L394.832,57.479L394.614,57.329L394.395,57.179L394.175,57.031L393.956,56.883L393.735,56.735L393.515,56.588L393.293,56.442L393.072,56.297L392.85,56.152L392.627,56.008L392.404,55.864L392.181,55.721L391.957,55.579L391.732,55.438L391.508,55.297L391.282,55.157L391.057,55.017L390.831,54.878L390.604,54.74L390.377,54.602L390.149,54.466L389.921,54.329L389.693,54.194L389.464,54.059L389.235,53.925L389.005,53.791L388.775,53.658L388.545,53.526L388.314,53.395L388.082,53.264L387.851,53.134L387.618,53.004L387.385,52.876L387.152,52.748L386.919,52.62L386.685,52.494L386.451,52.367L386.216,52.242L385.981,52.118L385.745,51.994L385.509,51.87L385.273,51.748L385.036,51.626L384.799,51.505L384.561,51.385L384.323,51.265L384.084,51.146L383.845,51.027L383.606,50.91L383.367,50.793L383.126,50.677L382.886,50.561L382.645,50.446L382.404,50.332L382.162,50.219L381.92,50.106L381.678,49.994L381.435,49.883L381.191,49.773L380.948,49.663L380.704,49.554L380.459,49.445L380.214,49.338L379.969,49.231L379.724,49.125L379.478,49.019L379.231,48.915L378.985,48.811L378.738,48.707L378.49,48.605L378.242,48.503L377.994,48.402L377.746,48.302L377.497,48.202L377.247,48.103L376.998,48.005L376.748,47.908L376.497,47.811L376.246,47.715L375.995,47.62L375.744,47.526L375.492,47.432L375.24,47.339L374.987,47.247L374.734,47.156L374.481,47.065L374.227,46.976L373.973,46.886L373.719,46.798L373.464,46.711L373.209,46.624L372.954,46.538L372.698,46.452L372.442,46.368L372.185,46.284L371.929,46.201L371.672,46.119L371.414,46.037L371.156,45.957L370.898,45.877L370.64,45.798L370.381,45.719L370.122,45.642L369.862,45.565L369.603,45.489L369.342,45.413L369.082,45.339L368.821,45.265L368.56,45.192L368.299,45.12L368.037,45.049L367.775,44.978L367.512,44.909L367.249,44.84L366.986,44.771L366.723,44.704L366.459,44.637L366.195,44.572L365.931,44.507L365.666,44.442L365.401,44.379L365.136,44.316L364.87,44.255L364.605,44.193L364.338,44.133L364.072,44.074L363.805,44.015L363.538,43.958L363.27,43.901L363.003,43.844L362.735,43.789L362.466,43.735L362.198,43.681L361.929,43.628L361.66,43.576L361.39,43.525L361.12,43.474L360.85,43.424L360.58,43.376L360.309,43.328L360.038,43.281L359.767,43.234L359.495,43.189L359.223,43.144L358.951,43.1L358.679,43.057L358.406,43.015L358.133,42.974L357.86,42.933L357.586,42.894L357.312,42.855L357.038,42.817L356.764,42.78L356.489,42.743L356.214,42.708L355.939,42.673L355.663,42.64L355.387,42.607L355.111,42.575L354.835,42.544L354.558,42.513L354.281,42.484L354.004,42.455L353.727,42.427L353.449,42.4L353.171,42.374L352.893,42.349L352.615,42.325L352.336,42.301L352.057,42.279L351.778,42.257L351.498,42.236L351.218,42.216L350.938,42.197L350.658,42.179L350.378,42.162L350.097,42.145L349.816,42.13L349.534,42.115L349.253,42.101L348.971,42.088L348.689,42.076L348.407,42.065L348.124,42.054L347.841,42.045L347.558,42.036L347.275,42.029L346.991,42.022L346.708,42.016L346.424,42.011L346.139,42.007L345.855,42.004L345.57,42.002L345.285,42L345,42L344.715,42Z" style="fill:rgb(172,173,161);"/>
    </g>
    <g transform="matrix(2.5,0,0,2.5,-450,-232.5)">
        <circle cx="300" cy="155" r="10" style="fill:white;"/>
    </g>
</svg>
