<?xml version="1.0" encoding="UTF-8" standalone="no"?><!DOCTYPE svg PUBLIC "-//W3C//DTD SVG 1.1//EN" "http://www.w3.org/Graphics/SVG/1.1/DTD/svg11.dtd"><svg width="100%" height="100%" viewBox="0 0 160 202" version="1.1" xmlns="http://www.w3.org/2000/svg" xmlns:xlink="http://www.w3.org/1999/xlink" xml:space="preserve" xmlns:serif="http://www.serif.com/" style="fill-rule:evenodd;clip-rule:evenodd;stroke-linejoin:round;stroke-miterlimit:1.41421;"><g><path d="M152.841,0.437c1.639,0 2.976,0.411 4.017,1.23c1.036,0.819 1.746,1.913 2.13,3.279c0.382,1.366 0.435,2.924 0.164,4.672c-0.274,1.75 -0.901,3.498 -1.885,5.245c-0.22,0.219 -0.492,0.219 -0.82,0c-0.327,-0.219 -0.547,-0.491 -0.655,-0.819c0.218,-1.312 -0.245,-2.404 -1.394,-3.279c-1.147,-0.873 -2.925,-1.312 -5.327,-1.312c-4.482,0 -8.989,1.667 -13.523,5c-4.536,3.335 -8.935,7.735 -13.196,13.196c-4.262,5.466 -8.252,11.75 -11.966,18.852c-3.717,7.104 -6.941,14.426 -9.672,21.965c-2.732,7.54 -4.892,15.026 -6.475,22.457c-1.584,7.433 -2.375,14.207 -2.375,20.328c0,3.276 0.927,4.917 2.787,4.917c1.311,0 2.594,-0.547 3.851,-1.641c1.255,-1.091 2.706,-2.729 4.345,-4.917c0.327,-0.216 0.627,-0.189 0.9,0.083c0.272,0.275 0.354,0.629 0.247,1.064c-2.188,3.279 -4.754,6.011 -7.705,8.196c-2.95,2.188 -5.63,3.279 -8.032,3.279c-2.077,0 -3.524,-0.601 -4.343,-1.804c-0.819,-1.201 -1.23,-2.729 -1.23,-4.589c0,-5.136 1.091,-11.558 3.279,-19.26c2.185,-7.705 5.106,-15.845 8.77,-24.425c3.661,-8.578 7.895,-17.129 12.704,-25.653c4.808,-8.524 9.808,-16.2 15,-23.03c5.189,-6.83 10.409,-12.377 15.654,-16.64c5.242,-4.263 10.159,-6.394 14.75,-6.394Z" style="fill:#b3d107;fill-rule:nonzero;"/><path d="M7.299,201.864c-1.64,0 -2.977,-0.41 -4.017,-1.229c-1.037,-0.819 -1.747,-1.913 -2.131,-3.279c-0.381,-1.368 -0.435,-2.924 -0.164,-4.672c0.275,-1.75 0.902,-3.497 1.885,-5.245c0.22,-0.221 0.492,-0.221 0.82,0c0.327,0.217 0.547,0.491 0.655,0.819c-0.217,1.312 0.246,2.404 1.394,3.279c1.147,0.872 2.924,1.31 5.327,1.31c4.482,0 8.99,-1.667 13.524,-5c4.535,-3.332 8.934,-7.731 13.196,-13.193c4.262,-5.466 8.252,-11.749 11.966,-18.852c3.716,-7.104 6.941,-14.426 9.671,-21.966c2.732,-7.54 4.892,-15.026 6.476,-22.457c1.584,-7.433 2.375,-14.207 2.375,-20.327c0,-3.279 -0.927,-4.917 -2.787,-4.917c-1.312,0 -2.595,0.544 -3.851,1.638c-1.255,1.091 -2.706,2.732 -4.345,4.919c-0.327,0.216 -0.627,0.189 -0.9,-0.083c-0.272,-0.275 -0.354,-0.63 -0.247,-1.067c2.188,-3.276 4.754,-6.011 7.705,-8.196c2.95,-2.185 5.629,-3.276 8.032,-3.276c2.077,0 3.524,0.598 4.343,1.801c0.819,1.203 1.23,2.732 1.23,4.592c0,5.136 -1.091,11.555 -3.279,19.26c-2.185,7.705 -5.106,15.845 -8.77,24.425c-3.661,8.578 -7.895,17.129 -12.704,25.653c-4.808,8.524 -9.808,16.2 -14.999,23.03c-5.189,6.83 -10.409,12.377 -15.655,16.638c-5.243,4.263 -10.16,6.395 -14.75,6.395Z" style="fill:#b3d107;fill-rule:nonzero;"/></g></svg>